<svg class="animated" id="freepik_stories-mobile-note-list" xmlns="http://www.w3.org/2000/svg" viewBox="0 0 500 500" version="1.1" xmlns:xlink="http://www.w3.org/1999/xlink" xmlns:svgjs="http://svgjs.com/svgjs"><style>svg#freepik_stories-mobile-note-list:not(.animated) .animable {opacity: 0;}svg#freepik_stories-mobile-note-list.animated #freepik--Graphics--inject-2 {animation: 1.5s Infinite  linear wind;animation-delay: 0s;}svg#freepik_stories-mobile-note-list.animated #freepik--Character--inject-2 {animation: 1.5s Infinite  linear floating;animation-delay: 0s;}            @keyframes wind {                0% {                    transform: rotate( 0deg );                }                25% {                    transform: rotate( 1deg );                }                75% {                    transform: rotate( -1deg );                }            }                    @keyframes floating {                0% {                    opacity: 1;                    transform: translateY(0px);                }                50% {                    transform: translateY(-10px);                }                100% {                    opacity: 1;                    transform: translateY(0px);                }            }        </style><g id="freepik--background-simple--inject-2" class="animable" style="transform-origin: 244.614px 242.395px;"><path d="M21.62,175.94S40.87,94.58,116.73,55s166.33-22.74,240-11.1,120.53,68,115.52,135.61-64.42,74-109.78,141.79-47.71,93-120.78,124.16-166.91-20.11-203-111S21.62,175.94,21.62,175.94Z" style="fill: rgb(19, 100, 139); transform-origin: 244.614px 242.395px;" id="elruoowmg4b8o" class="animable"></path><g id="elz21eot0v27c"><path d="M21.62,175.94S40.87,94.58,116.73,55s166.33-22.74,240-11.1,120.53,68,115.52,135.61-64.42,74-109.78,141.79-47.71,93-120.78,124.16-166.91-20.11-203-111S21.62,175.94,21.62,175.94Z" style="fill: rgb(255, 255, 255); opacity: 0.7; transform-origin: 244.614px 242.395px;" class="animable"></path></g></g><g id="freepik--Floor--inject-2" class="animable" style="transform-origin: 245.5px 452.5px;"><ellipse cx="245.5" cy="452.5" rx="184.5" ry="15.5" style="fill: rgb(38, 50, 56); transform-origin: 245.5px 452.5px;" id="eljcgks1gf3n" class="animable"></ellipse></g><g id="freepik--Graphics--inject-2" class="animable" style="transform-origin: 253.086px 228.325px;"><g id="elf3w9g7dzjlf"><g style="opacity: 0.1; transform-origin: 164.182px 67.399px;" class="animable"><path d="M171.8,78.34H151.16V57.69H171.8Zm-19.24-1.41H170.4V59.1H152.56Z" id="ellm13d5lqg7f" class="animable" style="transform-origin: 161.48px 68.015px;"></path><path d="M162.15,71.89l-5.39-6.59A1.05,1.05,0,1,1,158.39,64l4,4.85,13.22-12.24A1.05,1.05,0,0,1,177,58.13Z" id="elagyydg0r24q" class="animable" style="transform-origin: 166.825px 64.1741px;"></path></g></g><g id="eltwtufqut6v"><g style="opacity: 0.1; transform-origin: 215.625px 63.98px;" class="animable"><rect x="180.02" y="63.09" width="71.21" height="1.78" id="elh28u8ogt4ro" class="animable" style="transform-origin: 215.625px 63.98px;"></rect></g></g><g id="elmk8s39dgb5"><g style="opacity: 0.1; transform-origin: 202.205px 70.81px;" class="animable"><rect x="180.02" y="69.92" width="44.37" height="1.78" id="el9r9w6uvvggn" class="animable" style="transform-origin: 202.205px 70.81px;"></rect></g></g><g id="ela47ii1x9wnt"><g style="opacity: 0.1; transform-origin: 179.38px 392.216px;" class="animable"><path d="M186.93,403.21H166.29V382.57h20.64Zm-19.24-1.4h17.84V384H167.69Z" id="el4o7swxx9hxs" class="animable" style="transform-origin: 176.61px 392.89px;"></path><path d="M177.28,396.77l-5.39-6.59a1.06,1.06,0,0,1,1.64-1.33l4,4.85,13.21-12.24a1.06,1.06,0,0,1,1.44,1.55Z" id="elknk9vm3rst" class="animable" style="transform-origin: 182.09px 388.996px;"></path></g></g><g id="elzngpxr7k52i"><g style="opacity: 0.1; transform-origin: 230.755px 388.86px;" class="animable"><rect x="195.15" y="387.97" width="71.21" height="1.78" id="el2h5v8bq8ag4" class="animable" style="transform-origin: 230.755px 388.86px;"></rect></g></g><g id="el5j3a6c62awr"><g style="opacity: 0.1; transform-origin: 217.335px 395.69px;" class="animable"><rect x="195.15" y="394.8" width="44.37" height="1.78" id="elkkhhbfajgxp" class="animable" style="transform-origin: 217.335px 395.69px;"></rect></g></g><g id="el2mpv6m2h73l"><g style="opacity: 0.1; transform-origin: 64.8px 172.98px;" class="animable"><path d="M78.44,191.42H51.16V154.54H78.44Zm-26.39-.89h25.5v-35.1H52.05Z" id="elqisraxpfla" class="animable" style="transform-origin: 64.8px 172.98px;"></path><rect x="56.63" y="162.23" width="16.43" height="0.89" id="el3rfaams4krp" class="animable" style="transform-origin: 64.845px 162.675px;"></rect><rect x="56.63" y="167.59" width="16.43" height="0.89" id="elfdymi0lljpv" class="animable" style="transform-origin: 64.845px 168.035px;"></rect><rect x="56.63" y="172.95" width="16.43" height="0.89" id="el576l2q47o16" class="animable" style="transform-origin: 64.845px 173.395px;"></rect><rect x="56.63" y="178.31" width="16.43" height="0.89" id="elwfc0gm4ox4" class="animable" style="transform-origin: 64.845px 178.755px;"></rect><rect x="56.63" y="183.67" width="16.43" height="0.89" id="el3lcwgicd25j" class="animable" style="transform-origin: 64.845px 184.115px;"></rect></g></g><g id="elvf3c6bq3lw"><g style="opacity: 0.1; transform-origin: 418.06px 263.81px;" class="animable"><path d="M442.48,296.81H393.64v-66h48.84Zm-47.25-1.59h45.66V232.38H395.23Z" id="elf0gijdqb1bk" class="animable" style="transform-origin: 418.06px 263.81px;"></path><rect x="403.44" y="244.56" width="29.42" height="1.59" id="elhd5bk309p0h" class="animable" style="transform-origin: 418.15px 245.355px;"></rect><rect x="403.44" y="254.15" width="29.42" height="1.59" id="elwe7w37u76mj" class="animable" style="transform-origin: 418.15px 254.945px;"></rect><rect x="403.44" y="263.75" width="29.42" height="1.59" id="elc8r7f8dd01e" class="animable" style="transform-origin: 418.15px 264.545px;"></rect><rect x="403.44" y="273.34" width="29.42" height="1.59" id="elvx10mrx9jzp" class="animable" style="transform-origin: 418.15px 274.135px;"></rect><rect x="403.44" y="282.94" width="29.42" height="1.59" id="elzmf8esun37" class="animable" style="transform-origin: 418.15px 283.735px;"></rect></g></g><g id="el3la2djykuxb"><g style="opacity: 0.1; transform-origin: 198.65px 206.72px;" class="animable"><path d="M198.64,184.3a22.42,22.42,0,1,0,22.43,22.42A22.44,22.44,0,0,0,198.64,184.3Zm0,43.95a21.53,21.53,0,1,1,21.54-21.53A21.56,21.56,0,0,1,198.64,228.25Z" id="elaqsdplx6ktu" class="animable" style="transform-origin: 198.65px 206.72px;"></path><path d="M199.13,203.82V190.29h-.89v13.52a2.94,2.94,0,1,0,3.35,2.91v0H213.1v-.89H201.43A2.92,2.92,0,0,0,199.13,203.82Z" id="elnfwsrbjvy5e" class="animable" style="transform-origin: 204.405px 199.976px;"></path></g></g><g id="elit9xa2r1rbp"><g style="opacity: 0.1; transform-origin: 88.81px 90.44px;" class="animable"><path d="M88.81,53.44a37,37,0,1,0,37,37A37.06,37.06,0,0,0,88.81,53.44Zm0,72.56a35.55,35.55,0,1,1,35.55-35.54A35.58,35.58,0,0,1,88.81,126Z" id="eltowqucx61kr" class="animable" style="transform-origin: 88.81px 90.44px;"></path><path d="M89.61,85.66V63.33H88.14V85.65a4.86,4.86,0,1,0,5.54,4.81V90.4h19V88.93H93.42A4.86,4.86,0,0,0,89.61,85.66Z" id="elw4ao4ph0coi" class="animable" style="transform-origin: 98.32px 79.3261px;"></path></g></g><g id="eljb3fsez7xdp"><g style="opacity: 0.1; transform-origin: 442.586px 364.755px;" class="animable"><path d="M452.08,355h-2.86v-2.44h-.89V355H437.66v-2.44h-.89V355h-3.68a2.93,2.93,0,0,0-2.93,2.92v16.11a2.93,2.93,0,0,0,2.93,2.92h19a2.92,2.92,0,0,0,2.92-2.92V358A2.92,2.92,0,0,0,452.08,355Zm-19,.89h3.68v2h.89v-2h10.67v2h.89v-2h2.86a2,2,0,0,1,2,2v4.1H431.05V358A2,2,0,0,1,433.09,355.92Zm19,20.17h-19a2,2,0,0,1-2-2V362.94h23.06v11.12A2,2,0,0,1,452.08,376.09Z" id="el3540fnctq1p" class="animable" style="transform-origin: 442.586px 364.755px;"></path><rect x="435.56" y="366.59" width="14.45" height="0.89" id="elwtm9ef6ubpb" class="animable" style="transform-origin: 442.785px 367.035px;"></rect><rect x="435.56" y="370.31" width="14.45" height="0.89" id="elzqug9eu5ve" class="animable" style="transform-origin: 442.785px 370.755px;"></rect></g></g><g id="elcwjzww9cjht"><g style="opacity: 0.1; transform-origin: 79.305px 342.855px;" class="animable"><path d="M98,323.64H92.4v-4.82H90.65v4.82h-21v-4.82H67.86v4.82H60.6a5.77,5.77,0,0,0-5.75,5.76v31.73a5.76,5.76,0,0,0,5.75,5.76H98a5.76,5.76,0,0,0,5.76-5.76V329.4A5.77,5.77,0,0,0,98,323.64ZM60.6,325.4h7.26v4h1.76v-4h21v4H92.4v-4H98a4,4,0,0,1,4,4v8.07H56.6V329.4A4,4,0,0,1,60.6,325.4ZM98,365.14H60.6a4,4,0,0,1-4-4v-21.9H102v21.9A4,4,0,0,1,98,365.14Z" id="elstfhiu6i3vh" class="animable" style="transform-origin: 79.305px 342.855px;"></path><rect x="65.49" y="346.42" width="28.48" height="1.75" id="el2g4c42jvulp" class="animable" style="transform-origin: 79.73px 347.295px;"></rect><rect x="65.49" y="353.75" width="28.48" height="1.75" id="el9n3c9wd5wae" class="animable" style="transform-origin: 79.73px 354.625px;"></rect></g></g><g id="elroxe5f9x58l"><g style="opacity: 0.1; transform-origin: 209.09px 100.565px;" class="animable"><path d="M218.58,90.82h-2.86V88.37h-.89v2.45H204.16V88.37h-.89v2.45h-3.68a2.92,2.92,0,0,0-2.92,2.92v16.1a2.92,2.92,0,0,0,2.92,2.92h19a2.92,2.92,0,0,0,2.92-2.92V93.74A2.92,2.92,0,0,0,218.58,90.82Zm-19,.89h3.68v2h.89v-2h10.67v2h.89v-2h2.86a2,2,0,0,1,2,2v4.1H197.56v-4.1A2,2,0,0,1,199.59,91.71Zm19,20.16h-19a2,2,0,0,1-2-2V98.73h23.05v11.11A2,2,0,0,1,218.58,111.87Z" id="elwk169vrnfg" class="animable" style="transform-origin: 209.09px 100.565px;"></path><rect x="202.07" y="102.38" width="14.45" height="0.89" id="elbjlnzhevm35" class="animable" style="transform-origin: 209.295px 102.825px;"></rect><rect x="202.07" y="106.09" width="14.45" height="0.89" id="elo8tyv42rpbp" class="animable" style="transform-origin: 209.295px 106.535px;"></rect></g></g><g id="elk6k249bnfs"><g style="opacity: 0.1; transform-origin: 432.825px 96.52px;" class="animable"><path d="M445.47,83.54h-3.81V80.28h-1.18v3.26H426.27V80.28h-1.19v3.26h-4.9a3.89,3.89,0,0,0-3.89,3.89v21.44a3.89,3.89,0,0,0,3.89,3.89h25.29a3.89,3.89,0,0,0,3.89-3.89V87.43A3.89,3.89,0,0,0,445.47,83.54Zm-25.29,1.18h4.9v2.71h1.19V84.72h14.21v2.71h1.18V84.72h3.81a2.72,2.72,0,0,1,2.71,2.71v5.46H417.47V87.43A2.72,2.72,0,0,1,420.18,84.72Zm25.29,26.86H420.18a2.71,2.71,0,0,1-2.71-2.71V94.07h30.71v14.8A2.71,2.71,0,0,1,445.47,111.58Z" id="elg9ixcbm3ll8" class="animable" style="transform-origin: 432.825px 96.52px;"></path><rect x="423.48" y="98.93" width="19.24" height="1.19" id="elaw3h2s0ptgm" class="animable" style="transform-origin: 433.1px 99.525px;"></rect><rect x="423.48" y="103.88" width="19.24" height="1.19" id="el9ux7p0fvcto" class="animable" style="transform-origin: 433.1px 104.475px;"></rect></g></g></g><g id="freepik--Plants--inject-2" class="animable" style="transform-origin: 298.048px 245.114px;"><path d="M122,354.16c3.89-1.4,10.45-7.93,10.46-7.93s-5.61-3-6-3.17c-4.4-1.68-13.89-2.35-17.19,1.76a6.24,6.24,0,0,0,1.75,9.12C114.19,356,118.74,355.36,122,354.16Z" style="fill: rgb(19, 100, 139); transform-origin: 120.23px 348.513px;" id="elgu6q6esisyl" class="animable"></path><path d="M191.33,291.19c.1,0-3-5.62-3.25-5.95-2.74-3.83-10.28-9.62-15.3-8a6.24,6.24,0,0,0-3.57,8.58c1.48,3.41,5.61,5.41,9,6.24C182.25,293,191.33,291.19,191.33,291.19Z" style="fill: rgb(19, 100, 139); transform-origin: 179.966px 284.646px;" id="ela3cclncr0rm" class="animable"></path><path d="M188.27,247.84c-4.19,3.2-3.76,12.7-2.18,17.14.13.39,2.95,6.14,3,6.07l.08-.08c.05,1.5.13,3.11.25,4.87.25,3.24.56,6.89,1.16,10.85a108.75,108.75,0,0,0,2.56,12.68A81.36,81.36,0,0,0,198,313c0,.05.06.1.08.15-1-1.13-4.07-4.22-4.33-4.43-3.65-3-12.46-6.56-16.88-3.69a6.24,6.24,0,0,0-1.17,9.21c2.33,2.9,6.84,3.74,10.35,3.64,4-.12,11.68-3.92,12.29-4.22a111.35,111.35,0,0,0,7.35,12.77c1.58,2.39,3.24,4.75,4.94,7.1-.94-1-1.78-1.8-1.91-1.91-3.65-3-12.46-6.56-16.88-3.68a6.25,6.25,0,0,0-1.18,9.21c2.34,2.9,6.84,3.74,10.36,3.63s10.21-3.21,12-4.06l2,2.68c3.19,4.28,6.38,8.53,9.39,12.79,1.06,1.5,2,3,3,4.54-.84-.85-1.54-1.56-1.66-1.65-3.66-3-12.46-6.56-16.88-3.69a6.25,6.25,0,0,0-1.18,9.21c2.34,2.9,6.84,3.74,10.36,3.64s9.56-2.92,11.64-3.91c1,1.58,2,3.16,2.82,4.74.57,1.09,1.19,2.1,1.71,3.23l1.57,3.28c.93,2.13,1.89,4.31,2.74,6.41.61,1.45,1.15,2.85,1.71,4.25-1-1.51-3.13-4.42-3.34-4.64a24.16,24.16,0,0,0-10.47-6.31,7.5,7.5,0,0,0-1-.94,6.25,6.25,0,0,0-9.18,1.41c-2.76,4.5,1.05,13.21,4.12,16.78.18.21,2.39,2.28,3.81,3.57-1-.63-1.86-1.25-2.85-1.88-1.94-1.27-3.91-2.48-6-3.78l-3.16-1.81c-1-.62-2.23-1.15-3.35-1.73-2.62-1.31-5.35-2.5-8.12-3.64,1.1-1.7,4.94-7.8,5.49-11.29s.28-8.05-2.3-10.73a6.24,6.24,0,0,0-9.29,0c-3.41,4-.95,13.21,1.53,17.21.16.25,2.26,2.91,3.45,4.36-1.68-.68-3.34-1.36-5.06-2-4.94-1.81-10-3.49-15.05-5.18-1.55-.52-3.08-1.06-4.62-1.59.4-.6,5.12-7.74,5.73-11.65.55-3.48.29-8.05-2.29-10.73a6.25,6.25,0,0,0-9.29,0c-3.41,4-1,13.21,1.53,17.21.18.3,3.22,4.14,4,5.08-3.39-1.17-6.75-2.37-10-3.68a112.22,112.22,0,0,1-12.88-6.09c.19-.28,5.14-7.72,5.78-11.72.55-3.48.28-8.05-2.3-10.73a6.24,6.24,0,0,0-9.29,0c-3.41,4-1,13.21,1.53,17.21.16.26,2.47,3.19,3.6,4.56l-.19.22a79.39,79.39,0,0,1-11.64-8.36c-2-1.7-3.85-3.43-5.59-5.16,1.06-1.29,5.86-7.24,6.83-10.78.93-3.39,1.17-8-1.1-10.92a6.25,6.25,0,0,0-9.24-1c-3.83,3.62-2.4,13-.37,17.27.11.23,1.49,2.45,2.52,4.06-.77-.79-1.59-1.59-2.31-2.37-2.74-2.89-5.07-5.71-7.12-8.23-1.15-1.44-2.16-2.76-3.1-4,.39-1.82,1.85-9.14,1.09-12.66s-2.64-7.61-6-9.18a6.24,6.24,0,0,0-8.66,3.35c-1.73,5,3.87,12.67,7.63,15.51.32.24,5.84,3.49,5.86,3.39l0-.11c.87,1.22,1.82,2.52,2.89,3.92,2,2.56,4.27,5.45,7,8.41a112.23,112.23,0,0,0,9.12,9.17,81,81,0,0,0,11.56,8.69l.16.09c-1.5-.38-5.73-1.28-6.06-1.31-4.69-.47-14,1.4-16.11,6.23a6.24,6.24,0,0,0,4.1,8.34c3.54,1.13,7.77-.66,10.64-2.69,3.24-2.28,7.58-9.71,7.92-10.3a109.51,109.51,0,0,0,13.18,6.6c2.63,1.13,5.32,2.18,8,3.2-1.3-.28-2.47-.52-2.64-.54-4.69-.46-14,1.4-16.11,6.24a6.23,6.23,0,0,0,4.1,8.33c3.54,1.13,7.77-.65,10.64-2.68s6.74-8.31,7.73-10l3.13,1.15c5,1.8,10,3.58,14.88,5.48,1.72.67,3.38,1.39,5,2.11-1.16-.25-2.14-.45-2.3-.47-4.68-.46-14,1.4-16.11,6.24a6.24,6.24,0,0,0,4.1,8.33c3.55,1.13,7.77-.65,10.64-2.68s6.37-7.71,7.56-9.68c1.68.78,3.37,1.56,5,2.4,1.07.59,2.15,1.09,3.2,1.75l3.13,1.87c1.94,1.26,4,2.55,5.82,3.83,1.3.88,2.53,1.74,3.76,2.61-1.69-.69-5.05-2-5.34-2-4.56-1.17-14.06-.74-16.87,3.72a6.25,6.25,0,0,0,2.79,8.86c3.33,1.65,7.78.53,10.93-1,3.46-1.73,8.69-8.12,9.34-8.93,2.05,1.44,4,2.86,5.86,4.23,3.13,2.32,6,4.5,8.46,6.48l2.47-2.34c-2.67-2-5.71-4.28-9.1-6.67-2.07-1.47-4.31-3-6.62-4.55a66.43,66.43,0,0,0,2.89-7.42c4,.26,11.34-2,12.29-2.32.91,2.33,1.78,4.6,2.56,6.75q1.82,5,3.2,9.25l2.65-2.52c-.87-2.43-1.85-5.05-2.93-7.83-.91-2.36-1.94-4.87-3-7.44.87-.53,7.89-4.93,10-8.15,2-2.92,3.63-7.19,2.41-10.71a6.24,6.24,0,0,0-8.43-3.88c-4.79,2.22-6.41,11.59-5.83,16.27,0,.27.74,3.22,1.22,5.07-.45-1-.87-2.06-1.34-3.14-.92-2.12-1.9-4.22-2.94-6.47l-1.65-3.25c-.53-1.1-1.22-2.19-1.83-3.3-1.48-2.54-3.09-5-4.77-7.52,1.86-.81,8.42-3.78,10.8-6.38s4.68-6.56,4-10.22a6.25,6.25,0,0,0-7.75-5.12c-5.06,1.48-8.09,10.49-8.22,15.2,0,.29.27,3.68.46,5.54-1-1.49-2-3-3.12-4.44-3.13-4.24-6.42-8.43-9.7-12.63-1-1.28-2-2.58-3-3.87.66-.28,8.54-3.64,11.21-6.55,2.37-2.6,4.68-6.56,4-10.22a6.24,6.24,0,0,0-7.75-5.12c-5.06,1.47-8.08,10.49-8.22,15.2,0,.35.41,5.22.57,6.46-2.17-2.84-4.32-5.7-6.32-8.59a109.59,109.59,0,0,1-7.38-12.19c.31-.13,8.54-3.6,11.28-6.59,2.37-2.6,4.68-6.56,4-10.22a6.24,6.24,0,0,0-7.75-5.12C202,293,199,302,198.87,306.67c0,.31.31,4,.5,5.78l-.29.09a81.07,81.07,0,0,1-5.1-13.4c-.74-2.53-1.31-5-1.82-7.39,1.61-.49,8.89-2.8,11.65-5.22s5.37-6,5.11-9.72a6.24,6.24,0,0,0-7.14-5.93c-5.2.91-9.19,9.53-9.84,14.2,0,.25-.11,2.87-.14,4.78-.21-1.09-.45-2.21-.63-3.26-.69-3.93-1.07-7.56-1.39-10.79-.17-1.84-.28-3.5-.37-5.06,1.32-1.29,6.58-6.6,7.89-9.95s2-7.81,0-11A6.26,6.26,0,0,0,188.27,247.84Z" style="fill: rgb(19, 100, 139); transform-origin: 180.844px 326.632px;" id="elo7xwgpepu0j" class="animable"></path><path d="M481.78,140c-3.07.06-9.37-2.73-9.37-2.73s3.09-3.59,3.32-3.8c2.6-2.34,9-5.32,12.41-3.35a4.65,4.65,0,0,1,1.21,6.8C487.72,139.21,484.4,140,481.78,140Z" style="fill: rgb(19, 100, 139); transform-origin: 481.37px 134.74px;" id="el6rqnur96dfb" class="animable"></path><path d="M416.87,114.73c-.07,0,.6-4.7.68-5,.88-3.39,4.58-9.42,8.5-9.64a4.65,4.65,0,0,1,4.76,5c-.12,2.76-2.46,5.25-4.61,6.74C423.67,113.58,416.88,114.73,416.87,114.73Z" style="fill: rgb(19, 100, 139); transform-origin: 423.844px 107.409px;" id="elagdh4h933t" class="animable"></path><path d="M407.46,83.8c3.76,1.11,6,7.83,6.08,11.33,0,.3-.41,5.05-.48,5l-.08,0c.36,1.06.74,2.19,1.12,3.44.69,2.32,1.45,4.94,2.08,7.86a81.26,81.26,0,0,1,1.6,9.48,60.64,60.64,0,0,1,.27,10.76c0,.05,0,.09,0,.13.42-1.07,1.7-4,1.83-4.23,1.75-3,6.91-7.88,10.75-7.06a4.65,4.65,0,0,1,3.27,6.09c-.85,2.64-3.76,4.42-6.23,5.28-2.79,1-9.16.39-9.67.34a82,82,0,0,1-1.7,10.84c-.46,2.08-1,4.16-1.54,6.24.39-.91.75-1.72.82-1.83,1.74-3,6.91-7.88,10.74-7.06a4.64,4.64,0,0,1,3.27,6.09c-.85,2.64-3.75,4.42-6.22,5.28s-8,.49-9.39.36l-.66,2.39c-1.08,3.82-2.16,7.62-3.12,11.39-.34,1.32-.62,2.64-.91,4,.35-.81.66-1.49.71-1.59,1.75-3,6.91-7.87,10.75-7.05a4.65,4.65,0,0,1,3.27,6.09c-.85,2.63-3.76,4.42-6.23,5.28s-7.42.52-9.13.38c-.25,1.36-.51,2.72-.69,4.05-.11.91-.27,1.78-.33,2.7s-.15,1.81-.22,2.7c-.08,1.72-.17,3.5-.2,5.18,0,1.17,0,2.28-.05,3.41.32-1.33,1-3.91,1.08-4.12a18,18,0,0,1,5.6-7.17,5.22,5.22,0,0,1,.45-.92,4.64,4.64,0,0,1,6.75-1.46c3.12,2.38,2.79,9.45,1.61,12.75-.07.19-1.06,2.22-1.7,3.49.49-.69,1-1.36,1.48-2.06,1-1.4,2.06-2.76,3.18-4.23l1.72-2.1c.56-.71,1.24-1.39,1.86-2.1,1.48-1.6,3.06-3.16,4.68-4.69-1.22-.89-5.51-4.1-6.82-6.38s-2.34-5.52-1.26-8.07a4.64,4.64,0,0,1,6.45-2.46c3.44,1.88,4.19,8.92,3.52,12.36,0,.21-.79,2.63-1.23,3.95,1-.92,2-1.83,3-2.72,3-2.58,6-5.09,9.09-7.61l2.78-2.33c-.43-.31-5.62-4-7.08-6.57-1.31-2.27-2.35-5.52-1.27-8.07a4.65,4.65,0,0,1,6.46-2.47c3.44,1.89,4.18,8.92,3.52,12.36-.05.26-1.14,3.74-1.46,4.61,2-1.72,4.06-3.44,6-5.23a80.93,80.93,0,0,0,7.33-7.66c-.2-.14-5.63-4-7.13-6.6-1.31-2.27-2.34-5.52-1.26-8.07a4.63,4.63,0,0,1,6.45-2.47c3.44,1.89,4.18,8.92,3.52,12.36,0,.23-.87,2.88-1.29,4.13l.2.1a60.13,60.13,0,0,0,5.86-8.91c.95-1.71,1.76-3.41,2.51-5.07-1.08-.61-6-3.47-7.62-5.67s-2.93-5.23-2.14-7.88a4.64,4.64,0,0,1,6.14-3.16c3.63,1.49,5.14,8.41,4.86,11.9,0,.19-.38,2.1-.67,3.49.33-.76.68-1.53,1-2.26,1.13-2.74,2-5.32,2.75-7.62.42-1.3.77-2.49,1.09-3.61-.75-1.16-3.72-5.85-4.13-8.5s-.19-6,1.74-8a4.63,4.63,0,0,1,6.9,0c2.53,3,.69,9.83-1.17,12.8-.16.26-3.13,4-3.17,3.93l0-.07c-.28,1.08-.59,2.23-1,3.49-.71,2.31-1.52,4.92-2.6,7.7a83.31,83.31,0,0,1-3.9,8.79,60.8,60.8,0,0,1-5.71,9.12l-.09.1c.94-.66,3.64-2.41,3.86-2.52,3.13-1.57,10.11-2.76,12.86,0a4.65,4.65,0,0,1-.63,6.88c-2.17,1.73-5.58,1.62-8.11,1-2.86-.72-7.85-4.73-8.25-5.05a82.3,82.3,0,0,1-7.4,8.1c-1.53,1.48-3.12,2.93-4.73,4.36.83-.54,1.58-1,1.69-1.08,3.14-1.57,10.11-2.76,12.86.05a4.64,4.64,0,0,1-.63,6.88c-2.16,1.73-5.57,1.61-8.11,1s-6.9-4-8-4.88l-1.86,1.63c-3,2.59-6,5.16-8.89,7.77-1,.93-2,1.87-2.94,2.81.74-.48,1.37-.88,1.47-.93,3.13-1.57,10.11-2.76,12.85,0a4.64,4.64,0,0,1-.63,6.88c-2.16,1.73-5.57,1.62-8.1,1s-6.48-3.66-7.83-4.71c-1,1-1.93,2-2.81,3-.59.7-1.21,1.33-1.76,2.07s-1.13,1.43-1.68,2.13c-1,1.39-2.07,2.82-3,4.21-.67,1-1.3,1.88-1.93,2.81,1-.92,3-2.7,3.18-2.83,2.85-2,9.57-4.26,12.71-1.9a4.63,4.63,0,0,1,.42,6.89c-1.88,2-5.26,2.44-7.87,2.19-2.87-.28-8.2-3.33-8.87-3.71-1,1.54-2,3-2.94,4.49-1.56,2.45-2.95,4.72-4.16,6.76l-2.33-1c1.31-2.12,2.82-4.49,4.54-7.06,1.05-1.57,2.2-3.23,3.39-4.92a50.4,50.4,0,0,1-4-4.39c-2.68,1.24-8.41,1.62-9.15,1.66,0,1.86,0,3.67,0,5.38,0,2.64.13,5.07.23,7.27l-2.5-1c0-1.92-.06-4-.05-6.22,0-1.89.05-3.9.11-6-.74-.14-6.79-1.32-9.14-3-2.14-1.52-4.44-4-4.53-6.8a4.66,4.66,0,0,1,4.83-4.95c3.91.28,7.54,6.35,8.38,9.75.05.21.34,2.44.5,3.86,0-.85.05-1.67.1-2.54.07-1.72.19-3.44.32-5.29.09-.89.18-1.78.28-2.69s.26-1.85.39-2.78c.35-2.15.81-4.32,1.31-6.5-1.5-.06-6.85-.38-9.2-1.55s-5-3.31-5.51-6a4.64,4.64,0,0,1,4-5.61c3.91-.33,8.41,5.13,9.75,8.36.09.21.79,2.64,1.15,4,.32-1.31.63-2.61,1-3.92,1-3.78,2.22-7.57,3.38-11.35.35-1.16.69-2.32,1-3.48-.54,0-6.91-.26-9.54-1.58-2.34-1.17-5-3.31-5.5-6a4.64,4.64,0,0,1,4-5.62c3.91-.32,8.41,5.14,9.76,8.37.1.25,1.11,3.74,1.32,4.64.76-2.55,1.49-5.1,2.11-7.65a81.93,81.93,0,0,0,1.88-10.44c-.25,0-6.89-.22-9.59-1.57-2.34-1.17-5-3.31-5.5-6a4.64,4.64,0,0,1,4-5.62c3.91-.33,8.41,5.13,9.76,8.37.08.21.85,2.87,1.19,4.15l.23,0a60.13,60.13,0,0,0,0-10.66c-.16-2-.41-3.82-.71-5.62-1.24.08-6.92.42-9.48-.53s-5.33-2.74-6.13-5.39a4.64,4.64,0,0,1,3.38-6c3.85-.75,8.92,4.18,10.62,7.25.09.17.84,2,1.36,3.28-.14-.81-.27-1.65-.43-2.42-.57-2.92-1.26-5.55-1.9-7.87-.38-1.32-.74-2.51-1.09-3.61-1.27-.56-6.33-2.84-8.13-4.82s-3.47-4.89-3-7.61A4.65,4.65,0,0,1,407.46,83.8Z" style="fill: rgb(19, 100, 139); transform-origin: 437.154px 145.571px;" id="el374lyybfjvk" class="animable"></path></g><g id="freepik--Window--inject-2" class="animable" style="transform-origin: 316.64px 235.52px;"><path d="M406.19,40.46h-70.6l-2.93,5.44a18.31,18.31,0,0,1-32,0l-2.94-5.44H227.1a13.47,13.47,0,0,0-13.65,13.28V417.29a13.47,13.47,0,0,0,13.65,13.29H406.19a13.47,13.47,0,0,0,13.64-13.29V53.74A13.47,13.47,0,0,0,406.19,40.46Z" style="fill: rgb(255, 255, 255); stroke: rgb(38, 50, 56); stroke-linecap: round; stroke-linejoin: round; transform-origin: 316.64px 235.52px;" id="elh6otdwdwwcp" class="animable"></path><path d="M405.63,53.9H391.4a.41.41,0,0,1-.41-.41V45.68a.41.41,0,0,1,.41-.41h14.23a.41.41,0,0,1,.41.41v7.81A.41.41,0,0,1,405.63,53.9Zm-13.82-.82h13.41v-7H391.81Z" style="fill: rgb(38, 50, 56); transform-origin: 398.515px 49.585px;" id="elnrgr7m8jif" class="animable"></path><rect x="391.4" y="45.68" width="11.1" height="7.81" style="fill: rgb(38, 50, 56); transform-origin: 396.95px 49.585px;" id="elxnmoispk8qg" class="animable"></rect><path d="M402.5,53.85H391.4a.36.36,0,0,1-.36-.36V45.68a.36.36,0,0,1,.36-.36h11.1a.36.36,0,0,1,.36.36v7.81A.36.36,0,0,1,402.5,53.85Zm-10.74-.72h10.38V46.05H391.76Z" style="fill: rgb(38, 50, 56); transform-origin: 396.95px 49.585px;" id="el4fyk34mrrkw" class="animable"></path><rect x="405.6" y="47.87" width="2.01" height="3.44" style="fill: rgb(38, 50, 56); transform-origin: 406.605px 49.59px;" id="eln6g4egqnuk" class="animable"></rect><path d="M407.61,51.67h-2a.36.36,0,0,1-.36-.36V47.87a.36.36,0,0,1,.36-.36h2a.36.36,0,0,1,.36.36v3.44A.36.36,0,0,1,407.61,51.67ZM406,50.94h1.29V48.23H406Z" style="fill: rgb(38, 50, 56); transform-origin: 406.61px 49.59px;" id="elodtmk0njmu" class="animable"></path><rect x="225.21" y="48.11" width="2.61" height="4.47" style="fill: rgb(38, 50, 56); transform-origin: 226.515px 50.345px;" id="elpjbvyho7eoo" class="animable"></rect><path d="M227.82,53h-2.61a.44.44,0,0,1-.44-.44V48.11a.45.45,0,0,1,.44-.45h2.61a.45.45,0,0,1,.44.45v4.47A.44.44,0,0,1,227.82,53Zm-2.17-.88h1.73V48.55h-1.73Z" style="fill: rgb(38, 50, 56); transform-origin: 226.515px 50.33px;" id="elnvsepspfsr" class="animable"></path><rect x="229.31" y="46.53" width="2.61" height="6.05" style="fill: rgb(38, 50, 56); transform-origin: 230.615px 49.555px;" id="els4uxovqmtyj" class="animable"></rect><path d="M231.92,53h-2.61a.44.44,0,0,1-.44-.44v-6a.44.44,0,0,1,.44-.44h2.61a.44.44,0,0,1,.44.44v6A.44.44,0,0,1,231.92,53Zm-2.17-.88h1.73V47h-1.73Z" style="fill: rgb(38, 50, 56); transform-origin: 230.615px 49.56px;" id="elczjio1hqvck" class="animable"></path><rect x="233.41" y="44.68" width="2.61" height="7.9" style="fill: rgb(38, 50, 56); transform-origin: 234.715px 48.63px;" id="elknp2hjk8i9l" class="animable"></rect><path d="M236,53h-2.61a.44.44,0,0,1-.44-.44v-7.9a.44.44,0,0,1,.44-.44H236a.44.44,0,0,1,.44.44v7.9A.44.44,0,0,1,236,53Zm-2.17-.88h1.73v-7h-1.73Z" style="fill: rgb(38, 50, 56); transform-origin: 234.695px 48.61px;" id="elo6le921c6ck" class="animable"></path><path d="M381.87,53.34a.94.94,0,1,0-.94.93A.94.94,0,0,0,381.87,53.34Z" style="fill: rgb(38, 50, 56); transform-origin: 380.93px 53.33px;" id="el9qw5eo32zx9" class="animable"></path><path d="M375.94,48.61a6.85,6.85,0,0,1,9.74-.25l.51-.54a7.59,7.59,0,0,0-10.79.27Z" style="fill: rgb(38, 50, 56); transform-origin: 380.795px 47.1552px;" id="el5l4h59iox96" class="animable"></path><path d="M376.93,49.54l.54.52a4.74,4.74,0,0,1,6.75-.17l.52-.54a5.49,5.49,0,0,0-7.81.19Z" style="fill: rgb(38, 50, 56); transform-origin: 380.835px 48.9358px;" id="elmcp9up43tnf" class="animable"></path><path d="M378.62,51.15l.55.52a2.41,2.41,0,0,1,3.44-.09l.51-.54a3.14,3.14,0,0,0-2.19-.89A3.2,3.2,0,0,0,378.62,51.15Z" style="fill: rgb(38, 50, 56); transform-origin: 380.87px 50.91px;" id="eldn1ny2frki7" class="animable"></path><path d="M246.84,83.28l-.39,2h-1l1.93-10.09H249l1.93,10.09h-1.12l-.39-2Zm.14-1h2.25l-1.14-5.83Z" style="fill: rgb(38, 50, 56); transform-origin: 248.19px 80.235px;" id="el1yfqclzfd5e" class="animable"></path><path d="M251.79,85.31V75.22h1.12v9.07h2.88v1Z" style="fill: rgb(38, 50, 56); transform-origin: 253.79px 80.265px;" id="elztrgsr0vqnc" class="animable"></path><path d="M256.65,85.31V75.22h1.12v9.07h2.89v1Z" style="fill: rgb(38, 50, 56); transform-origin: 258.655px 80.265px;" id="elh1ve0sqzmw" class="animable"></path><path d="M264.74,85.31h-1V75.22h1.43l2.33,7.3v-7.3h1V85.31h-1.17l-2.58-8.16Z" style="fill: rgb(38, 50, 56); transform-origin: 266.12px 80.265px;" id="el1a2s2antij6" class="animable"></path><path d="M269.56,77.66c0-1.54.76-2.54,2.31-2.54s2.32,1,2.32,2.54v5.22c0,1.53-.77,2.54-2.32,2.54s-2.31-1-2.31-2.54Zm1.11,5.28c0,.92.39,1.45,1.2,1.45s1.19-.53,1.19-1.45V77.6c0-.91-.37-1.46-1.19-1.46s-1.2.55-1.2,1.46Z" style="fill: rgb(38, 50, 56); transform-origin: 271.875px 80.27px;" id="elmpsf5eerm9n" class="animable"></path><path d="M276.73,85.31V76.25h-1.86v-1h4.84v1h-1.86v9.06Z" style="fill: rgb(38, 50, 56); transform-origin: 277.29px 80.28px;" id="elrers2pn5pk" class="animable"></path><path d="M284.08,79.69v1h-2.46v3.59h3v1h-4.16V75.22h4.16v1h-3v3.44Z" style="fill: rgb(38, 50, 56); transform-origin: 282.54px 80.25px;" id="elm49cii16v29" class="animable"></path><path d="M290.06,77.64v.28H289v-.33c0-.91-.35-1.45-1.16-1.45s-1.15.54-1.15,1.43c0,2.27,3.39,2.48,3.39,5.32,0,1.53-.74,2.53-2.28,2.53s-2.26-1-2.26-2.53v-.57h1.05V83c0,.91.37,1.44,1.18,1.44S289,83.86,289,83c0-2.25-3.38-2.47-3.38-5.31,0-1.55.72-2.52,2.24-2.52S290.06,76.12,290.06,77.64Z" style="fill: rgb(38, 50, 56); transform-origin: 287.81px 80.295px;" id="elok7xa095oj" class="animable"></path><path d="M236.5,138.7v.86h-1.95v3.67h-.94v-8.48H237v.86h-2.42v3.09Z" style="fill: rgb(38, 50, 56); transform-origin: 235.305px 138.99px;" id="el16kn9zjqi8b" class="animable"></path><path d="M238.67,134.75v8.48h-.94v-8.48Z" style="fill: rgb(38, 50, 56); transform-origin: 238.2px 138.99px;" id="elrkjxpyr94d" class="animable"></path><path d="M240.48,143.23h-.85v-8.48h1.2l2,6.13v-6.13h.84v8.48h-1l-2.17-6.86Z" style="fill: rgb(38, 50, 56); transform-origin: 241.65px 138.99px;" id="ellbv62zipqj" class="animable"></path><path d="M245.54,134.75v8.48h-.94v-8.48Z" style="fill: rgb(38, 50, 56); transform-origin: 245.07px 138.99px;" id="elmg2w5j18t3" class="animable"></path><path d="M250.19,136.78V137h-.9v-.28c0-.76-.29-1.21-1-1.21s-1,.45-1,1.2c0,1.9,2.85,2.09,2.85,4.47,0,1.29-.62,2.12-1.92,2.12s-1.9-.83-1.9-2.12v-.48h.89v.53c0,.76.31,1.21,1,1.21s1-.45,1-1.21c0-1.89-2.83-2.07-2.83-4.46,0-1.31.6-2.12,1.88-2.12S250.19,135.5,250.19,136.78Z" style="fill: rgb(38, 50, 56); transform-origin: 248.255px 138.975px;" id="elfq6ihf58lj" class="animable"></path><path d="M252,139.41v3.82H251v-8.48H252v3.81h2.08v-3.81H255v8.48h-.95v-3.82Z" style="fill: rgb(38, 50, 56); transform-origin: 253px 138.99px;" id="elvi4e6vqp8y" class="animable"></path><path d="M259.08,143.23v-7.62h-1.56v-.86h4.07v.86H260v7.62Z" style="fill: rgb(38, 50, 56); transform-origin: 259.555px 138.99px;" id="elhgmhgvv008" class="animable"></path><path d="M263.19,139.41v3.82h-.94v-8.48h.94v3.81h2.09v-3.81h.94v8.48h-.94v-3.82Z" style="fill: rgb(38, 50, 56); transform-origin: 264.235px 138.99px;" id="elin7sr7fm18p" class="animable"></path><path d="M270.21,138.5v.85h-2.07v3h2.54v.86h-3.49v-8.48h3.49v.86h-2.54v2.89Z" style="fill: rgb(38, 50, 56); transform-origin: 268.935px 138.97px;" id="elo76swoiqw2f" class="animable"></path><path d="M275.32,134.75c1.34,0,1.89.68,1.89,1.94v.69c0,.93-.32,1.51-1,1.74.77.23,1.06.86,1.06,1.77v1.32a2.22,2.22,0,0,0,.17,1h-.95a2.19,2.19,0,0,1-.16-1v-1.33c0-1-.45-1.26-1.24-1.26h-.66v3.62h-.95v-8.48Zm-.24,4c.75,0,1.2-.25,1.2-1.17v-.81c0-.76-.28-1.16-1-1.16h-.92v3.14Z" style="fill: rgb(38, 50, 56); transform-origin: 275.46px 138.995px;" id="eldwr20r3iibb" class="animable"></path><path d="M281.22,138.5v.85h-2.07v3h2.55v.86h-3.49v-8.48h3.49v.86h-2.55v2.89Z" style="fill: rgb(38, 50, 56); transform-origin: 279.955px 138.97px;" id="elroxo213jscj" class="animable"></path><path d="M284.42,134.75c1.34,0,1.91.78,1.91,2.07v1a1.77,1.77,0,0,1-2,2h-.83v3.35h-.95v-8.48Zm-.07,4.29c.71,0,1-.33,1-1.14v-1.13c0-.77-.27-1.16-1-1.16h-.9V139Z" style="fill: rgb(38, 50, 56); transform-origin: 284.449px 138.93px;" id="el9zx3vpc0f0o" class="animable"></path><path d="M287,136.79c0-1.29.64-2.13,1.94-2.13s1.95.84,1.95,2.13v4.39a1.86,1.86,0,0,1-1.95,2.13c-1.3,0-1.94-.85-1.94-2.13Zm.93,4.44c0,.77.33,1.22,1,1.22s1-.45,1-1.22v-4.48c0-.77-.32-1.23-1-1.23s-1,.46-1,1.23Z" style="fill: rgb(38, 50, 56); transform-origin: 288.955px 138.987px;" id="elntdbobkpcu" class="animable"></path><path d="M293.71,134.75c1.33,0,1.89.68,1.89,1.94v.69a1.58,1.58,0,0,1-1.06,1.74c.78.23,1.07.86,1.07,1.77v1.32a2.09,2.09,0,0,0,.17,1h-1a2.23,2.23,0,0,1-.15-1v-1.33c0-1-.45-1.26-1.24-1.26h-.67v3.62h-.94v-8.48Zm-.24,4c.75,0,1.2-.25,1.2-1.17v-.81c0-.76-.28-1.16-1-1.16h-.92v3.14Z" style="fill: rgb(38, 50, 56); transform-origin: 293.78px 138.995px;" id="elpvzs6tmbq1" class="animable"></path><path d="M297.83,143.23v-7.62h-1.56v-.86h4.07v.86h-1.57v7.62Z" style="fill: rgb(38, 50, 56); transform-origin: 298.305px 138.99px;" id="elepmgntfomtb" class="animable"></path><path d="M233.28,153.82h.3c.39,0,.63-.21.63-.76V149h.59V153c0,1-.5,1.33-1.15,1.34h-.37Z" style="fill: rgb(178, 178, 178); transform-origin: 234.04px 151.67px;" id="elyjacs01d5j" class="animable"></path><path d="M236,153.1c0,.48.19.77.63.77s.62-.29.62-.77V149h.57v4.09c0,.81-.38,1.36-1.21,1.36s-1.2-.55-1.2-1.36V149H236Z" style="fill: rgb(178, 178, 178); transform-origin: 236.615px 151.725px;" id="elzsx9qgdlnn" class="animable"></path><path d="M238.37,154.37V149h.6v4.84h1.54v.55Z" style="fill: rgb(178, 178, 178); transform-origin: 239.44px 151.695px;" id="ela92pxvxirek" class="animable"></path><path d="M241.44,152.44,240.3,149h.62l.84,2.65.85-2.65h.57L242,152.44v1.93h-.59Z" style="fill: rgb(178, 178, 178); transform-origin: 241.74px 151.685px;" id="el8e1jtd6vhfg" class="animable"></path><path d="M247,153.28v1.09h-.58v-1.09h-1.74v-.55l1.67-3.75H247v3.75h.43v.55Zm-1.77-.55h1.19V150.1Z" style="fill: rgb(178, 178, 178); transform-origin: 246.055px 151.675px;" id="els2exhr6b50a" class="animable"></path><path d="M235.41,194.31h-.57L234,190v4.3h-.53v-5.39h.84l.89,4.3.85-4.3h.84v5.39h-.57V190Z" style="fill: rgb(178, 178, 178); transform-origin: 235.18px 191.61px;" id="eld7e9xsrbpm9" class="animable"></path><path d="M238.06,193.23l-.21,1.09h-.55l1-5.39h.87l1,5.39h-.6l-.21-1.09Zm.08-.51h1.2l-.61-3.11Z" style="fill: rgb(178, 178, 178); transform-origin: 238.735px 191.625px;" id="el4olt5wbbo5a" class="animable"></path><path d="M241.9,188.93c.85,0,1.2.43,1.2,1.23v.44a1,1,0,0,1-.67,1.11c.49.14.68.54.68,1.12v.84a1.51,1.51,0,0,0,.1.65h-.6a1.45,1.45,0,0,1-.1-.66v-.84c0-.61-.29-.8-.79-.8h-.42v2.3h-.6v-5.39Zm-.15,2.54c.47,0,.76-.15.76-.74v-.51c0-.49-.18-.74-.63-.74h-.58v2Z" style="fill: rgb(178, 178, 178); transform-origin: 241.955px 191.625px;" id="el4vkw4h06jec" class="animable"></path><path d="M246.11,190.23v.49h-.57v-.52c0-.48-.19-.78-.63-.78s-.63.3-.63.78v2.85c0,.48.2.77.63.77s.63-.29.63-.77v-.7h.57V193c0,.81-.39,1.35-1.22,1.35s-1.21-.54-1.21-1.35v-2.79c0-.81.39-1.35,1.21-1.35S246.11,189.42,246.11,190.23Z" style="fill: rgb(178, 178, 178); transform-origin: 244.895px 191.605px;" id="elw68dloihj6" class="animable"></path><path d="M247.25,191.89v2.43h-.6v-5.39h.6v2.42h1.33v-2.42h.6v5.39h-.6v-2.43Z" style="fill: rgb(178, 178, 178); transform-origin: 247.915px 191.625px;" id="elpgv9aw7oil" class="animable"></path><path d="M252.08,189.91a1.7,1.7,0,0,1-.74.23v-.49a.92.92,0,0,0,.92-.72h.42v5.39h-.6Z" style="fill: rgb(178, 178, 178); transform-origin: 252.01px 191.625px;" id="eldpkqpn5wpkj" class="animable"></path><path d="M256,190.22v.1h-.56v-.13c0-.49-.2-.77-.64-.77s-.65.29-.65.87v1.2a.85.85,0,0,1,.87-.57c.69,0,1,.5,1,1.27V193c0,.82-.4,1.36-1.23,1.36s-1.23-.54-1.23-1.36v-2.75c0-.85.38-1.38,1.23-1.38S256,189.4,256,190.22Zm-1.85,2v.81c0,.48.2.77.63.77s.64-.29.64-.77v-.81c0-.49-.2-.78-.64-.78S254.15,191.75,254.15,192.24Z" style="fill: rgb(178, 178, 178); transform-origin: 254.79px 191.615px;" id="el0lc6jxkvw9" class="animable"></path><path d="M237.35,178.19v.73h-.9v-.77c0-.77-.3-1.23-1-1.23s-1,.46-1,1.23v4.48c0,.76.31,1.22,1,1.22s1-.46,1-1.22v-1.7h-.87v-.85h1.77v2.5c0,1.28-.61,2.13-1.91,2.13s-1.91-.85-1.91-2.13v-4.39c0-1.28.61-2.13,1.91-2.13S237.35,176.91,237.35,178.19Z" style="fill: rgb(38, 50, 56); transform-origin: 235.44px 180.385px;" id="elke8snmz1ioe" class="animable"></path><path d="M240.14,176.15c1.33,0,1.89.67,1.89,1.93v.7a1.58,1.58,0,0,1-1.06,1.74c.78.23,1.07.86,1.07,1.77v1.32a2.11,2.11,0,0,0,.17,1h-1a2.25,2.25,0,0,1-.15-1v-1.34c0-.95-.45-1.26-1.24-1.26h-.67v3.63h-.94v-8.48Zm-.24,4c.75,0,1.2-.24,1.2-1.16v-.81c0-.76-.28-1.16-1-1.16h-.92v3.13Z" style="fill: rgb(38, 50, 56); transform-origin: 240.21px 180.395px;" id="elckkl3he8tar" class="animable"></path><path d="M243,178.19c0-1.29.64-2.13,1.94-2.13s2,.84,2,2.13v4.39a1.86,1.86,0,0,1-2,2.13c-1.3,0-1.94-.85-1.94-2.13Zm.93,4.44c0,.77.33,1.22,1,1.22s1-.45,1-1.22v-4.48c0-.77-.32-1.23-1-1.23s-1,.46-1,1.23Z" style="fill: rgb(38, 50, 56); transform-origin: 244.98px 180.388px;" id="elo3exeh7j54" class="animable"></path><path d="M251.48,178.19V179h-.89v-.81c0-.77-.31-1.23-1-1.23s-1,.46-1,1.23v4.48c0,.76.31,1.22,1,1.22s1-.46,1-1.22v-1.1h.89v1.05c0,1.28-.6,2.13-1.91,2.13s-1.9-.85-1.9-2.13v-4.39c0-1.28.6-2.13,1.9-2.13S251.48,176.91,251.48,178.19Z" style="fill: rgb(38, 50, 56); transform-origin: 249.575px 180.425px;" id="elzzcngnv4tkj" class="animable"></path><path d="M255.36,179.9v.85h-2.07v3h2.54v.86h-3.49v-8.48h3.49V177h-2.54v2.89Z" style="fill: rgb(38, 50, 56); transform-origin: 254.085px 180.37px;" id="elz3bndczfrq" class="animable"></path><path d="M258.6,176.15c1.33,0,1.89.67,1.89,1.93v.7a1.58,1.58,0,0,1-1.06,1.74c.78.23,1.07.86,1.07,1.77v1.32a2.11,2.11,0,0,0,.17,1h-1a2.22,2.22,0,0,1-.16-1v-1.34c0-.95-.44-1.26-1.23-1.26h-.67v3.63h-.94v-8.48Zm-.25,4c.76,0,1.2-.24,1.2-1.16v-.81c0-.76-.27-1.16-1-1.16h-.92v3.13Z" style="fill: rgb(38, 50, 56); transform-origin: 258.67px 180.395px;" id="elmo8ogbul0rf" class="animable"></path><path d="M262.86,181.59l-1.79-5.44h1l1.32,4.16,1.33-4.16h.9l-1.8,5.44v3h-.94Z" style="fill: rgb(38, 50, 56); transform-origin: 263.345px 180.37px;" id="el47r5oegc58s" class="animable"></path><path d="M268.16,184.63v-8.48h.95v7.62h2.42v.86Z" style="fill: rgb(38, 50, 56); transform-origin: 269.845px 180.39px;" id="elqd9bkbg123k" class="animable"></path><path d="M273.19,176.15v8.48h-.94v-8.48Z" style="fill: rgb(38, 50, 56); transform-origin: 272.72px 180.39px;" id="elnw8luj3ngek" class="animable"></path><path d="M277.83,178.18v.23h-.9v-.28c0-.76-.29-1.21-1-1.21s-1,.45-1,1.2c0,1.9,2.84,2.08,2.84,4.47,0,1.29-.61,2.12-1.91,2.12s-1.9-.83-1.9-2.12v-.48h.88v.53c0,.76.32,1.21,1,1.21s1-.45,1-1.21c0-1.89-2.84-2.07-2.84-4.46,0-1.31.61-2.12,1.88-2.12S277.83,176.9,277.83,178.18Z" style="fill: rgb(38, 50, 56); transform-origin: 275.895px 180.385px;" id="elusdfhw9n8d" class="animable"></path><path d="M279.91,184.63V177h-1.57v-.86h4.07V177h-1.56v7.62Z" style="fill: rgb(38, 50, 56); transform-origin: 280.375px 180.385px;" id="elo4j2bnaxih" class="animable"></path><path d="M233.28,235.29h.3c.39,0,.63-.2.63-.75v-4.09h.59v4.05c0,1-.5,1.32-1.15,1.34a2.29,2.29,0,0,1-.37,0Z" style="fill: rgb(178, 178, 178); transform-origin: 234.04px 233.149px;" id="elhecgk0z7crb" class="animable"></path><path d="M236,234.75l-.21,1.08h-.55l1-5.38h.87l1,5.38h-.6l-.21-1.08Zm.08-.52h1.2l-.61-3.1Z" style="fill: rgb(178, 178, 178); transform-origin: 236.675px 233.14px;" id="ell9loyia9hw8" class="animable"></path><path d="M239.17,235.83h-.54v-5.38h.76l1.25,3.89v-3.89h.53v5.38h-.62l-1.38-4.35Z" style="fill: rgb(178, 178, 178); transform-origin: 239.9px 233.14px;" id="el23wlbvm18sd" class="animable"></path><path d="M242.35,234.56c0,.49.2.78.63.78s.63-.29.63-.78v-4.11h.56v4.08c0,.82-.38,1.36-1.21,1.36s-1.2-.54-1.2-1.36v-4.08h.59Z" style="fill: rgb(178, 178, 178); transform-origin: 242.965px 233.17px;" id="elv8il6yyycsm" class="animable"></path><path d="M245.37,234.75l-.21,1.08h-.55l1-5.38h.87l1,5.38h-.6l-.21-1.08Zm.08-.52h1.2l-.61-3.1Z" style="fill: rgb(178, 178, 178); transform-origin: 246.045px 233.14px;" id="elstfx2wn270d" class="animable"></path><path d="M249.21,230.45c.84,0,1.2.43,1.2,1.23v.44c0,.59-.21,1-.67,1.1.49.15.67.55.67,1.13v.84a1.33,1.33,0,0,0,.11.64h-.61a1.56,1.56,0,0,1-.09-.65v-.85c0-.61-.29-.8-.79-.8h-.42v2.3H248v-5.38Zm-.16,2.54c.48,0,.77-.16.77-.74v-.52c0-.48-.18-.74-.63-.74h-.58v2Z" style="fill: rgb(178, 178, 178); transform-origin: 249.26px 233.14px;" id="els13j6ztbad" class="animable"></path><path d="M251.92,233.9l-1.14-3.45h.62l.84,2.64.84-2.64h.57l-1.14,3.45v1.93h-.59Z" style="fill: rgb(178, 178, 178); transform-origin: 252.215px 233.14px;" id="eln686cmbkepj" class="animable"></path><path d="M257.07,231h-1.83v-.54h2.44V231l-1.39,4.86h-.6Z" style="fill: rgb(178, 178, 178); transform-origin: 256.46px 233.16px;" id="elqagygbo6wz" class="animable"></path><path d="M236.5,219.91v.86h-1.95v3.68h-.94V216H237v.86h-2.42v3.09Z" style="fill: rgb(38, 50, 56); transform-origin: 235.305px 220.225px;" id="elhbm6mwxdcl" class="animable"></path><path d="M238.53,222.74l-.33,1.71h-.87L239,216h1.37l1.62,8.49H241l-.33-1.71Zm.12-.81h1.89l-1-4.9Z" style="fill: rgb(38, 50, 56); transform-origin: 239.66px 220.245px;" id="elsyts512sjce" class="animable"></path><path d="M243.1,216l1.38,7.38,1.37-7.38h.87l-1.59,8.49h-1.39l-1.6-8.49Z" style="fill: rgb(38, 50, 56); transform-origin: 244.43px 220.245px;" id="el94u3v0qrhqg" class="animable"></path><path d="M247.36,218c0-1.29.64-2.13,1.94-2.13s1.95.84,1.95,2.13v4.39a1.86,1.86,0,0,1-1.95,2.13c-1.3,0-1.94-.85-1.94-2.13Zm.94,4.44c0,.77.32,1.22,1,1.22s1-.45,1-1.22V218c0-.76-.32-1.22-1-1.22s-1,.46-1,1.22Z" style="fill: rgb(38, 50, 56); transform-origin: 249.315px 220.197px;" id="el5woy12lq1sh" class="animable"></path><path d="M254,216c1.33,0,1.89.68,1.89,1.94v.69c0,.94-.33,1.52-1.05,1.75.77.23,1.06.86,1.06,1.77v1.32a2.13,2.13,0,0,0,.17,1h-1a2.25,2.25,0,0,1-.16-1v-1.34c0-1-.45-1.26-1.24-1.26h-.66v3.63h-.95V216Zm-.24,4c.75,0,1.2-.24,1.2-1.16V218c0-.77-.28-1.17-1-1.17h-.92V220Z" style="fill: rgb(38, 50, 56); transform-origin: 254.065px 220.25px;" id="el7dywukui23o" class="animable"></path><path d="M257.87,216v8.49h-.94V216Z" style="fill: rgb(38, 50, 56); transform-origin: 257.4px 220.245px;" id="el8ww4hf72e4n" class="animable"></path><path d="M260.08,224.45v-7.63h-1.57V216h4.07v.86H261v7.63Z" style="fill: rgb(38, 50, 56); transform-origin: 260.545px 220.245px;" id="elay15tmnktvr" class="animable"></path><path d="M266.26,219.72v.85h-2.07v3h2.54v.86h-3.49V216h3.49v.86h-2.54v2.9Z" style="fill: rgb(38, 50, 56); transform-origin: 264.985px 220.215px;" id="elreq1uy9sqae" class="animable"></path><path d="M271.27,218v.23h-.89V218c0-.76-.29-1.21-1-1.21s-1,.45-1,1.2c0,1.9,2.85,2.08,2.85,4.47,0,1.28-.62,2.12-1.92,2.12s-1.9-.84-1.9-2.12v-.48h.88v.53c0,.76.32,1.21,1,1.21s1-.45,1-1.21c0-1.89-2.83-2.07-2.83-4.46,0-1.31.6-2.12,1.87-2.12S271.27,216.72,271.27,218Z" style="fill: rgb(38, 50, 56); transform-origin: 269.34px 220.255px;" id="elz9nyec0evps" class="animable"></path><path d="M275.89,216c1.32,0,1.85.63,1.85,1.88v.4c0,.9-.26,1.46-1,1.69.83.23,1.14.88,1.14,1.81v.72a1.75,1.75,0,0,1-1.94,2H274V216Zm-.23,3.6c.76,0,1.14-.24,1.14-1.12v-.5c0-.75-.25-1.12-.93-1.12h-.93v2.74Zm.28,4c.69,0,1-.37,1-1.16v-.75c0-.94-.38-1.26-1.19-1.26h-.82v3.17Z" style="fill: rgb(38, 50, 56); transform-origin: 275.95px 220.256px;" id="el78ygnoiczkf" class="animable"></path><path d="M278.67,218c0-1.29.64-2.13,1.94-2.13s1.95.84,1.95,2.13v4.39a1.86,1.86,0,0,1-1.95,2.13c-1.3,0-1.94-.85-1.94-2.13Zm.93,4.44c0,.77.33,1.22,1,1.22s1-.45,1-1.22V218c0-.76-.31-1.22-1-1.22s-1,.46-1,1.22Z" style="fill: rgb(38, 50, 56); transform-origin: 280.625px 220.197px;" id="ele5sopxokaqj" class="animable"></path><path d="M283.38,218c0-1.29.65-2.13,1.94-2.13s1.95.84,1.95,2.13v4.39a2,2,0,1,1-3.89,0Zm.94,4.44c0,.77.32,1.22,1,1.22s1-.45,1-1.22V218c0-.76-.32-1.22-1-1.22s-1,.46-1,1.22Z" style="fill: rgb(38, 50, 56); transform-origin: 285.325px 220.363px;" id="elmelll4cfqvp" class="animable"></path><path d="M289.61,220.76l-.49.84v2.85h-.95V216h.95v4.1l2.25-4.1h1l-2.15,3.87,2.22,4.62h-1Z" style="fill: rgb(38, 50, 56); transform-origin: 290.305px 220.245px;" id="elnxhmxewwl9e" class="animable"></path><path d="M296.74,218v.23h-.9V218c0-.76-.29-1.21-1-1.21s-1,.45-1,1.2c0,1.9,2.85,2.08,2.85,4.47,0,1.28-.62,2.12-1.91,2.12s-1.9-.84-1.9-2.12v-.48h.88v.53c0,.76.31,1.21,1,1.21s1-.45,1-1.21c0-1.89-2.84-2.07-2.84-4.46,0-1.31.61-2.12,1.88-2.12S296.74,216.72,296.74,218Z" style="fill: rgb(38, 50, 56); transform-origin: 294.81px 220.255px;" id="elm0uto8g6taj" class="animable"></path><path d="M234.69,271.09c.84,0,1.22.51,1.22,1.34v2.72c0,.82-.38,1.33-1.22,1.33h-1.26v-5.39Zm0,4.84c.44,0,.64-.27.64-.76V272.4c0-.49-.2-.76-.64-.76H234v4.29Z" style="fill: rgb(178, 178, 178); transform-origin: 234.67px 273.785px;" id="ele89bg5dn9nt" class="animable"></path><path d="M238.39,273.48V274h-1.31v1.91h1.61v.55h-2.21v-5.39h2.21v.55h-1.61v1.84Z" style="fill: rgb(178, 178, 178); transform-origin: 237.585px 273.765px;" id="el85tgu38dt5n" class="animable"></path><path d="M241.62,272.39v.49h-.57v-.52c0-.48-.19-.78-.63-.78s-.63.3-.63.78v2.85c0,.48.2.77.63.77s.63-.29.63-.77v-.7h.57v.67c0,.81-.38,1.35-1.21,1.35s-1.21-.54-1.21-1.35v-2.79c0-.81.38-1.35,1.21-1.35S241.62,271.58,241.62,272.39Z" style="fill: rgb(178, 178, 178); transform-origin: 240.41px 273.785px;" id="elflw4kmocli" class="animable"></path><path d="M244.08,273.48V274h-1.31v1.91h1.61v.55h-2.21v-5.39h2.21v.55h-1.61v1.84Z" style="fill: rgb(178, 178, 178); transform-origin: 243.275px 273.765px;" id="eljtjsdufuial" class="animable"></path><path d="M246.92,276.47h-.57l-.9-4.29v4.3h-.52v-5.39h.84l.88,4.3.86-4.3h.84v5.39h-.57v-4.33Z" style="fill: rgb(178, 178, 178); transform-origin: 246.64px 273.785px;" id="elb9802awveue" class="animable"></path><path d="M250.17,271.09c.84,0,1.17.4,1.17,1.19v.26c0,.57-.16.92-.63,1.07.52.14.72.56.72,1.15v.45a1.11,1.11,0,0,1-1.23,1.27H249v-5.39Zm-.15,2.29c.48,0,.73-.16.73-.72v-.31c0-.48-.17-.71-.6-.71h-.59v1.74Zm.18,2.55c.44,0,.64-.23.64-.73v-.48c0-.6-.24-.8-.76-.8h-.52v2Z" style="fill: rgb(178, 178, 178); transform-origin: 250.221px 273.789px;" id="el3kqdxddtaov" class="animable"></path><path d="M253.89,273.48V274h-1.31v1.91h1.61v.55H252v-5.39h2.21v.55h-1.61v1.84Z" style="fill: rgb(178, 178, 178); transform-origin: 253.105px 273.765px;" id="elf8k6obwo95w" class="animable"></path><path d="M256,271.09c.84,0,1.2.43,1.2,1.23v.44a1,1,0,0,1-.67,1.11c.49.15.67.54.67,1.12v.84a1.37,1.37,0,0,0,.11.65h-.61a1.45,1.45,0,0,1-.1-.66V275c0-.61-.28-.8-.78-.8h-.42v2.3h-.6v-5.39Zm-.16,2.54c.48,0,.76-.15.76-.74v-.51c0-.49-.17-.74-.62-.74h-.58v2Z" style="fill: rgb(178, 178, 178); transform-origin: 256.055px 273.795px;" id="elfalknabsess" class="animable"></path><path d="M261.39,272.4c0,1.62-1.82,2.21-1.83,3.45v.08h1.77v.55H259V276c0-1.73,1.82-2.07,1.82-3.59,0-.55-.18-.84-.63-.84s-.63.31-.63.79v.48H259v-.44c0-.83.38-1.37,1.21-1.37S261.39,271.58,261.39,272.4Z" style="fill: rgb(178, 178, 178); transform-origin: 260.195px 273.755px;" id="el0ee7ucwux52u" class="animable"></path><path d="M264.37,272.4c0,1.62-1.82,2.21-1.83,3.45v.08h1.77v.55H262V276c0-1.73,1.82-2.07,1.82-3.59,0-.55-.19-.84-.63-.84s-.63.31-.63.79v.48H262v-.44c0-.83.37-1.37,1.2-1.37S264.37,271.58,264.37,272.4Z" style="fill: rgb(178, 178, 178); transform-origin: 263.185px 273.755px;" id="el76ll9wqforx" class="animable"></path><path d="M234.55,261.33v3.82h-.94v-8.48h.94v3.82h2.09v-3.82h.94v8.48h-.94v-3.82Z" style="fill: rgb(38, 50, 56); transform-origin: 235.595px 260.91px;" id="el8jyw6e8pd6o" class="animable"></path><path d="M239.51,263.44l-.33,1.71h-.87l1.62-8.48h1.37l1.63,8.48h-1l-.33-1.71Zm.12-.81h1.89l-1-4.89Z" style="fill: rgb(38, 50, 56); transform-origin: 240.62px 260.91px;" id="elgjp48s3t9sr" class="animable"></path><path d="M245.52,256.67c1.33,0,1.9.79,1.9,2.07v1c0,1.34-.63,2.05-2,2.05h-.84v3.34h-.94v-8.48Zm-.07,4.29c.7,0,1-.33,1-1.14v-1.13c0-.77-.28-1.16-1-1.16h-.91V261Z" style="fill: rgb(38, 50, 56); transform-origin: 245.53px 260.89px;" id="elxh8nv5dle7q" class="animable"></path><path d="M250,256.67c1.33,0,1.9.79,1.9,2.07v1c0,1.34-.63,2.05-2,2.05h-.83v3.34h-1v-8.48Zm-.08,4.29c.71,0,1.05-.33,1.05-1.14v-1.13c0-.77-.28-1.16-1-1.16h-.91V261Z" style="fill: rgb(38, 50, 56); transform-origin: 249.985px 260.89px;" id="elm6fpi2cb2ls" class="animable"></path><path d="M254.14,262.11l-1.8-5.44h1l1.32,4.17,1.33-4.17h.9l-1.81,5.44v3h-.93Z" style="fill: rgb(38, 50, 56); transform-origin: 254.615px 260.89px;" id="ele2w3r8f0vy" class="animable"></path><path d="M261.34,256.67c1.32,0,1.84.63,1.84,1.88v.4c0,.89-.26,1.45-1,1.68.83.23,1.14.89,1.14,1.82v.71a1.74,1.74,0,0,1-1.93,2h-2v-8.48Zm-.23,3.6c.75,0,1.14-.24,1.14-1.13v-.49c0-.76-.26-1.12-.94-1.12h-.93v2.74Zm.28,4c.69,0,1-.36,1-1.15v-.75c0-.95-.37-1.26-1.19-1.26h-.82v3.16Z" style="fill: rgb(38, 50, 56); transform-origin: 261.366px 260.921px;" id="elkawegkc6zx" class="animable"></path><path d="M265.13,256.67v8.48h-.94v-8.48Z" style="fill: rgb(38, 50, 56); transform-origin: 264.66px 260.91px;" id="eliuv5em60qyp" class="animable"></path><path d="M268,256.67c1.33,0,1.89.68,1.89,1.94v.69a1.58,1.58,0,0,1-1.05,1.74c.77.23,1.06.86,1.06,1.77v1.32a2.22,2.22,0,0,0,.17,1h-.95a2.19,2.19,0,0,1-.16-1v-1.33c0-1-.45-1.26-1.24-1.26h-.66v3.62h-.95v-8.48Zm-.24,4c.75,0,1.2-.24,1.2-1.17v-.81c0-.76-.28-1.16-1-1.16h-.92v3.14Z" style="fill: rgb(38, 50, 56); transform-origin: 268.09px 260.915px;" id="ele2pxrz6y8o" class="animable"></path><path d="M272.1,265.15v-7.62h-1.56v-.86h4.06v.86H273v7.62Z" style="fill: rgb(38, 50, 56); transform-origin: 272.57px 260.91px;" id="elxsx20nqu0g" class="animable"></path><path d="M276.18,261.33v3.82h-.94v-8.48h.94v3.82h2.09v-3.82h.94v8.48h-.94v-3.82Z" style="fill: rgb(38, 50, 56); transform-origin: 277.225px 260.91px;" id="ele75qd3m1uv" class="animable"></path><path d="M282.17,256.67c1.32,0,1.93.8,1.93,2.11v4.27c0,1.3-.61,2.1-1.93,2.1h-2v-8.48Zm0,7.62c.68,0,1-.42,1-1.2v-4.36c0-.78-.32-1.2-1-1.2h-1v6.76Z" style="fill: rgb(38, 50, 56); transform-origin: 282.135px 260.91px;" id="eln2zriw5pth" class="animable"></path><path d="M285.93,263.44l-.33,1.71h-.87l1.62-8.48h1.37l1.63,8.48h-1l-.33-1.71Zm.12-.81h1.89l-1-4.89Z" style="fill: rgb(38, 50, 56); transform-origin: 287.04px 260.91px;" id="el8x8xks44q09" class="animable"></path><path d="M291,262.11l-1.8-5.44h1l1.32,4.17,1.34-4.17h.89l-1.8,5.44v3H291Z" style="fill: rgb(38, 50, 56); transform-origin: 291.475px 260.89px;" id="el71k3rkj88pg" class="animable"></path><path d="M298,258.71v.23h-.9v-.28c0-.77-.29-1.21-1-1.21s-1,.44-1,1.2c0,1.9,2.85,2.08,2.85,4.46,0,1.29-.62,2.13-1.91,2.13s-1.9-.84-1.9-2.13v-.48h.88v.53c0,.77.31,1.22,1,1.22s1-.45,1-1.22c0-1.89-2.84-2.07-2.84-4.45,0-1.31.61-2.13,1.88-2.13S298,257.42,298,258.71Z" style="fill: rgb(38, 50, 56); transform-origin: 296.07px 260.91px;" id="el4oik5pdiirq" class="animable"></path><path d="M233.28,316.85h.3c.39,0,.63-.2.63-.75V312h.59v4.05c0,1-.5,1.32-1.15,1.34a2.29,2.29,0,0,1-.37,0Z" style="fill: rgb(178, 178, 178); transform-origin: 234.04px 314.699px;" id="elshiqybe805" class="animable"></path><path d="M236,316.12c0,.49.19.78.63.78s.62-.29.62-.78V312h.57v4.08c0,.82-.38,1.36-1.21,1.36s-1.2-.54-1.2-1.36V312H236Z" style="fill: rgb(178, 178, 178); transform-origin: 236.615px 314.72px;" id="ely62u59pkwg" class="animable"></path><path d="M238.37,317.39V312h.6v4.84h1.54v.54Z" style="fill: rgb(178, 178, 178); transform-origin: 239.44px 314.695px;" id="eladleze0wx24" class="animable"></path><path d="M241.44,315.46,240.3,312h.62l.84,2.64.85-2.64h.57L242,315.46v1.93h-.59Z" style="fill: rgb(178, 178, 178); transform-origin: 241.74px 314.695px;" id="elkgdh7n9011" class="animable"></path><path d="M245.9,313a1.7,1.7,0,0,1-.75.23v-.5a.92.92,0,0,0,.93-.71h.41v5.38h-.59Z" style="fill: rgb(178, 178, 178); transform-origin: 245.82px 314.71px;" id="elt1dqvr82jga" class="animable"></path><path d="M249.82,313.3v.1h-.57v-.14c0-.48-.2-.77-.63-.77s-.66.3-.66.87v1.21a.87.87,0,0,1,.87-.58c.69,0,1,.5,1,1.28v.82c0,.82-.41,1.36-1.23,1.36s-1.24-.54-1.24-1.36v-2.75c0-.85.39-1.38,1.24-1.38S249.82,312.48,249.82,313.3Zm-1.86,2v.8c0,.49.2.78.64.78s.64-.29.64-.78v-.8c0-.49-.21-.78-.64-.78S248,314.83,248,315.32Z" style="fill: rgb(178, 178, 178); transform-origin: 248.595px 314.705px;" id="eldj50ij1zgrh" class="animable"></path><path d="M234.44,305.57h-.85v-8.48h1.2l2,6.13v-6.13h.83v8.48h-1l-2.17-6.86Z" style="fill: rgb(38, 50, 56); transform-origin: 235.605px 301.33px;" id="elgvp623shoqs" class="animable"></path><path d="M241.58,300.84v.85h-2.07v3h2.54v.86h-3.49v-8.48h3.49V298h-2.54v2.89Z" style="fill: rgb(38, 50, 56); transform-origin: 240.305px 301.31px;" id="elygj8icg4a7m" class="animable"></path><path d="M245.94,300.84v.85h-2.07v3h2.55v.86h-3.49v-8.48h3.49V298h-2.55v2.89Z" style="fill: rgb(38, 50, 56); transform-origin: 244.675px 301.31px;" id="elks63n7fecf" class="animable"></path><path d="M249.28,297.09c1.32,0,1.92.8,1.92,2.11v4.27c0,1.3-.6,2.1-1.92,2.1h-2v-8.48Zm0,7.62c.68,0,1-.43,1-1.2v-4.36c0-.78-.33-1.2-1-1.2h-1v6.76Z" style="fill: rgb(38, 50, 56); transform-origin: 249.24px 301.33px;" id="elt41jab42wa" class="animable"></path><path d="M255.19,305.57V298h-1.56v-.86h4.06V298h-1.56v7.62Z" style="fill: rgb(38, 50, 56); transform-origin: 255.66px 301.38px;" id="el6ios51ovp2a" class="animable"></path><path d="M258.26,299.14c0-1.3.64-2.14,1.94-2.14s1.95.84,1.95,2.14v4.38c0,1.29-.64,2.13-1.95,2.13s-1.94-.84-1.94-2.13Zm.93,4.43c0,.77.33,1.22,1,1.22s1-.45,1-1.22v-4.48c0-.77-.31-1.23-1-1.23s-1,.46-1,1.23Z" style="fill: rgb(38, 50, 56); transform-origin: 260.205px 301.325px;" id="el49hok7xedmj" class="animable"></path><path d="M266.78,297.09c1.33,0,1.9.79,1.9,2.07v1c0,1.34-.63,2-2,2h-.84v3.35h-.95v-8.48Zm-.07,4.29c.7,0,1-.33,1-1.14v-1.13c0-.77-.28-1.16-1-1.16h-.91v3.43Z" style="fill: rgb(38, 50, 56); transform-origin: 266.785px 301.27px;" id="elk8oi2znu88n" class="animable"></path><path d="M270.22,303.86l-.33,1.71H269l1.63-8.48H272l1.63,8.48h-.95l-.32-1.71Zm.12-.81h1.89l-1-4.9Z" style="fill: rgb(38, 50, 56); transform-origin: 271.315px 301.33px;" id="eluqqe79ta00j" class="animable"></path><path d="M275.29,302.53l-1.8-5.44h1l1.33,4.17,1.33-4.17H278l-1.8,5.44v3h-.93Z" style="fill: rgb(38, 50, 56); transform-origin: 275.745px 301.31px;" id="elmnhbsww3wv" class="animable"></path><line x1="221.29" y1="74.99" x2="237.44" y2="74.99" style="fill: none; stroke: rgb(19, 100, 139); stroke-miterlimit: 10; transform-origin: 229.365px 74.99px;" id="elio9jv9w9ah" class="animable"></line><line x1="221.29" y1="80.37" x2="237.44" y2="80.37" style="fill: none; stroke: rgb(19, 100, 139); stroke-miterlimit: 10; transform-origin: 229.365px 80.37px;" id="el1l7uo95e8zl" class="animable"></line><line x1="221.29" y1="85.75" x2="237.44" y2="85.75" style="fill: none; stroke: rgb(19, 100, 139); stroke-miterlimit: 10; transform-origin: 229.365px 85.75px;" id="eldycqou6dafn" class="animable"></line><rect x="392.59" y="74.74" width="4.93" height="4.93" style="fill: none; stroke: rgb(19, 100, 139); stroke-miterlimit: 10; transform-origin: 395.055px 77.205px;" id="elfzxi9vo5ent" class="animable"></rect><rect x="400.26" y="74.74" width="4.93" height="4.93" style="fill: none; stroke: rgb(19, 100, 139); stroke-miterlimit: 10; transform-origin: 402.725px 77.205px;" id="elunbjihqtkt" class="animable"></rect><rect x="392.59" y="81.74" width="4.93" height="4.93" style="fill: none; stroke: rgb(19, 100, 139); stroke-miterlimit: 10; transform-origin: 395.055px 84.205px;" id="elrt22rd04utj" class="animable"></rect><rect x="400.26" y="81.74" width="4.93" height="4.93" style="fill: none; stroke: rgb(19, 100, 139); stroke-miterlimit: 10; transform-origin: 402.725px 84.205px;" id="elwtkpqf2yb6" class="animable"></rect><path d="M400.73,127.74h-167a11.5,11.5,0,0,1-11.5-11.5h0a11.5,11.5,0,0,1,11.5-11.5h167a11.5,11.5,0,0,1,11.5,11.5h0A11.5,11.5,0,0,1,400.73,127.74Z" style="fill: rgb(229, 229, 229); transform-origin: 317.23px 116.24px;" id="el3e44c7vdphk" class="animable"></path><path d="M237.32,114.93v.2h-.77v-.24c0-.66-.25-1-.84-1s-.84.39-.84,1c0,1.64,2.46,1.8,2.46,3.87,0,1.11-.53,1.83-1.65,1.83s-1.65-.72-1.65-1.83v-.42h.77v.46c0,.66.27,1,.86,1s.86-.39.86-1c0-1.64-2.46-1.79-2.46-3.86,0-1.13.53-1.83,1.63-1.83S237.32,113.82,237.32,114.93Z" style="fill: rgb(178, 178, 178); transform-origin: 235.68px 116.85px;" id="elis4lt1l04qe" class="animable"></path><path d="M240.66,116.42v.73h-1.79v2.61h2.2v.75h-3v-7.34h3v.74h-2.2v2.51Z" style="fill: rgb(178, 178, 178); transform-origin: 239.57px 116.84px;" id="el3gndi9ko3rs" class="animable"></path><path d="M242.65,119l-.28,1.48h-.76l1.41-7.34h1.18l1.41,7.34h-.82l-.28-1.48Zm.11-.7h1.63l-.83-4.24Z" style="fill: rgb(178, 178, 178); transform-origin: 243.61px 116.81px;" id="elsutgj6juu8k" class="animable"></path><path d="M247.89,113.17c1.15,0,1.63.59,1.63,1.68v.59c0,.81-.28,1.31-.91,1.51.67.2.92.75.92,1.53v1.15a1.8,1.8,0,0,0,.15.88h-.83a2,2,0,0,1-.14-.89v-1.16c0-.83-.38-1.09-1.07-1.09h-.57v3.14h-.82v-7.34Zm-.21,3.46c.65,0,1-.21,1-1v-.7c0-.66-.24-1-.85-1h-.79v2.72Z" style="fill: rgb(178, 178, 178); transform-origin: 247.965px 116.84px;" id="el2m81vv0k7dv" class="animable"></path><path d="M253.62,114.94v.66h-.77v-.7c0-.66-.27-1.06-.86-1.06s-.86.4-.86,1.06v3.88c0,.66.27,1.06.86,1.06s.86-.4.86-1.06v-1h.77v.92c0,1.11-.52,1.84-1.66,1.84s-1.64-.73-1.64-1.84v-3.8c0-1.11.52-1.84,1.64-1.84S253.62,113.83,253.62,114.94Z" style="fill: rgb(178, 178, 178); transform-origin: 251.97px 116.8px;" id="elk79z56sqqh" class="animable"></path><path d="M255.19,117.2v3.31h-.82v-7.34h.82v3.3H257v-3.3h.82v7.34H257V117.2Z" style="fill: rgb(178, 178, 178); transform-origin: 256.095px 116.84px;" id="elw0hgx3gqsnd" class="animable"></path><rect x="282.75" y="360.35" width="70" height="23" rx="11.5" style="fill: rgb(19, 100, 139); transform-origin: 317.75px 371.85px;" id="elospvonde36f" class="animable"></rect><path d="M297.5,376.69h-1v-10.1h1.42l2.34,7.3v-7.3h1v10.1h-1.17l-2.58-8.16Z" style="fill: rgb(38, 50, 56); transform-origin: 298.88px 371.64px;" id="els92vtdkxwmg" class="animable"></path><path d="M306,371.06v1h-2.47v3.59h3v1h-4.15v-10.1h4.15v1h-3v3.44Z" style="fill: rgb(38, 50, 56); transform-origin: 304.455px 371.6px;" id="el0zt71n6ew25h" class="animable"></path><path d="M310.28,376.69h-1.54l-1.38-10.1h1.09l1.19,8.6,1.12-8.58h1.11L313,375.2l1.14-8.61h1l-1.37,10.1h-1.48l-1-6.85Z" style="fill: rgb(38, 50, 56); transform-origin: 311.25px 371.64px;" id="eldxrwzswdbad" class="animable"></path><path d="M319.24,376.69h-1v-10.1h1.43l2.34,7.3v-7.3h1v10.1h-1.16l-2.59-8.16Z" style="fill: rgb(38, 50, 56); transform-origin: 320.625px 371.64px;" id="eljd0tfyu8n3g" class="animable"></path><path d="M324.06,369c0-1.54.77-2.54,2.31-2.54s2.32,1,2.32,2.54v5.22c0,1.53-.76,2.54-2.32,2.54s-2.31-1-2.31-2.54Zm1.11,5.28c0,.92.39,1.46,1.2,1.46s1.2-.54,1.2-1.46V369c0-.9-.38-1.45-1.2-1.45s-1.2.55-1.2,1.45Z" style="fill: rgb(38, 50, 56); transform-origin: 326.375px 371.61px;" id="el4yy7c144dku" class="animable"></path><path d="M331.22,376.69v-9.07h-1.86v-1h4.83v1h-1.86v9.07Z" style="fill: rgb(38, 50, 56); transform-origin: 331.775px 371.655px;" id="elcskr843fzcp" class="animable"></path><path d="M338.54,371.06v1h-2.46v3.59h3v1H335v-10.1h4.16v1h-3v3.44Z" style="fill: rgb(38, 50, 56); transform-origin: 337.08px 371.6px;" id="elv0q930qbysr" class="animable"></path><line x1="221.29" y1="98.82" x2="411.93" y2="98.82" style="fill: none; stroke: rgb(204, 204, 204); stroke-miterlimit: 10; transform-origin: 316.61px 98.82px;" id="elu927rxh7kxk" class="animable"></line><line x1="221.29" y1="161.48" x2="411.93" y2="161.48" style="fill: none; stroke: rgb(204, 204, 204); stroke-miterlimit: 10; transform-origin: 316.61px 161.48px;" id="elodwx7b0ovt" class="animable"></line><line x1="221.29" y1="201.82" x2="411.93" y2="201.82" style="fill: none; stroke: rgb(204, 204, 204); stroke-miterlimit: 10; transform-origin: 316.61px 201.82px;" id="elb88uxu5a4j" class="animable"></line><line x1="221.29" y1="242.15" x2="411.93" y2="242.15" style="fill: none; stroke: rgb(204, 204, 204); stroke-miterlimit: 10; transform-origin: 316.61px 242.15px;" id="elmsgfj9b3tva" class="animable"></line><line x1="221.29" y1="282.48" x2="411.93" y2="282.48" style="fill: none; stroke: rgb(204, 204, 204); stroke-miterlimit: 10; transform-origin: 316.61px 282.48px;" id="el6auqjs442i5" class="animable"></line><line x1="221.29" y1="322.82" x2="411.93" y2="322.82" style="fill: none; stroke: rgb(204, 204, 204); stroke-miterlimit: 10; transform-origin: 316.61px 322.82px;" id="elquptwz9aqqo" class="animable"></line><line x1="221.29" y1="395.08" x2="411.93" y2="395.08" style="fill: none; stroke: rgb(204, 204, 204); stroke-miterlimit: 10; transform-origin: 316.61px 395.08px;" id="el51t4p05h2hk" class="animable"></line><polygon points="276.6 402.68 283.61 406.72 283.61 398.63 276.6 402.68" style="fill: none; stroke: rgb(204, 204, 204); stroke-miterlimit: 10; transform-origin: 280.105px 402.675px;" id="eldzh4jkfjtfi" class="animable"></polygon><path d="M320.91,402.68a3.74,3.74,0,1,0-3.73,3.73A3.73,3.73,0,0,0,320.91,402.68Z" style="fill: none; stroke: rgb(204, 204, 204); stroke-miterlimit: 10; transform-origin: 317.17px 402.67px;" id="elsdtjj4t9nua" class="animable"></path><rect x="350.2" y="398.63" width="8.09" height="8.09" style="fill: none; stroke: rgb(204, 204, 204); stroke-miterlimit: 10; transform-origin: 354.245px 402.675px;" id="el97ewf62kwt7" class="animable"></rect></g><g id="freepik--Character--inject-2" class="animable" style="transform-origin: 120.395px 268.119px;"><path d="M137.11,339.14s-5.67,21.07-5,27.36,3.78,12.89.63,23.27-11.32,27.36-11.32,27.36l-.31,2.2s1.57,0,1.57,4.09v6.29s7.23,7.23,8.18,9.75-.32,12-5.35,12c-10,0-11.13-5.85-13.84-12.27-4.92-11.66-5-12.57-3.46-20.12s1.89-20.13,1.58-28.3-1-23.9.63-30.51,1.57-26.41.62-29.87S138.68,336,138.68,336Z" style="fill: rgb(207, 207, 207); stroke: rgb(38, 50, 56); stroke-miterlimit: 10; transform-origin: 123.003px 390.532px;" id="elrn3t8fcf99" class="animable"></path><path d="M130.82,439.46c-.95-2.52-8.18-9.75-8.18-9.75v-6.29c0-4.09-1.57-4.09-1.57-4.09s-5.66-1.26-7.24,1.26l-1.57,2.52-3.74-6c-.11.66-.22,1.3-.35,1.91-1.57,7.55-1.46,8.46,3.46,20.12,2.71,6.42,3.79,12.27,13.84,12.27C130.5,451.41,131.76,442,130.82,439.46Z" style="fill: rgb(207, 207, 207); stroke: rgb(38, 50, 56); stroke-miterlimit: 10; transform-origin: 119.19px 434.26px;" id="elgwh0mbp7xft" class="animable"></path><path d="M122.64,429.71s-3.15,3.46-9.12,2.2" style="fill: none; stroke: rgb(38, 50, 56); stroke-miterlimit: 10; transform-origin: 118.08px 430.948px;" id="elaecedqgy3r4" class="animable"></path><path d="M83.64,330s4.41,16.67,4.72,23.59-5.34,20.12-2.51,32.7S94,418.07,95,422.79a39.51,39.51,0,0,1,.94,6.29s-6.6-4.72-11.32-2.83-6,9.44-2.52,18.24,18.56,14.15,22.33,15.41,9.43-2.2,9.12-6a20.69,20.69,0,0,0-1.26-6s.95-1.26.63-4.4a9.33,9.33,0,0,0-1.26-4.41s-3.14-33-.94-44,5-18.56,3.77-26.73-1.88-17-1.88-17,2.2-14.47,2.2-17.93S100.94,317.76,83.64,330Z" style="fill: rgb(255, 255, 255); stroke: rgb(38, 50, 56); stroke-miterlimit: 10; transform-origin: 97.466px 392.418px;" id="elj3alzan4fe" class="animable"></path><path d="M113.52,453.92a20.69,20.69,0,0,0-1.26-6s.95-1.26.63-4.4a9.33,9.33,0,0,0-1.26-4.41l-1.88.63a26.07,26.07,0,0,0-3.78-6.92c-2.2-2.51-5.34.32-5.34.32-1.26-2.2-4.72-4.09-4.72-4.09s-6.6-4.72-11.32-2.83-6,9.44-2.52,18.24,18.56,14.15,22.33,15.41S113.83,457.7,113.52,453.92Z" style="fill: rgb(255, 255, 255); stroke: rgb(38, 50, 56); stroke-miterlimit: 10; transform-origin: 96.8121px 442.954px;" id="elmxdjk7a11x9" class="animable"></path><path d="M82.07,444.49c3.46,8.81,18.56,14.15,22.33,15.41,2.64.88,6.2-.55,8-2.78-1-2.55-5-4-7.68-5.71-3.45-2.2-5.66-8.18-9.12-17.61s-11-7.55-11-7.55C79.87,428.14,78.61,435.69,82.07,444.49Z" style="fill: rgb(135, 135, 135); stroke: rgb(38, 50, 56); stroke-miterlimit: 10; transform-origin: 96.2506px 443.13px;" id="elhq2fyauzgrn" class="animable"></path><path d="M100.63,433.17s3.46,1.57,3.77,7.86" style="fill: none; stroke: rgb(38, 50, 56); stroke-miterlimit: 10; transform-origin: 102.515px 437.1px;" id="elpsog5r4mi5g" class="animable"></path><path d="M74.17,229s-10,30-10.33,51.67,5.33,34.66,5.33,43.33.34,20.33.34,20.33l8-2.33V325.67l4.33,15.66s9.33-10,18-9.33,13.67,6.33,25.33,9.33,24.34.34,24.34.34.91-11.82,3.33-26.34A158.18,158.18,0,0,0,153.4,266a114.88,114.88,0,0,0-5.6-22.54c-.49-1.34-5.31-16.16-6.63-16.13Z" style="fill: rgb(38, 50, 56); stroke: rgb(38, 50, 56); stroke-miterlimit: 10; transform-origin: 109.446px 285.83px;" id="elozy5dhno11i" class="animable"></path><path d="M110.08,275.12c2.74,9.6,6.36,23.94,7.26,35.38" style="fill: none; stroke: rgb(130, 130, 130); stroke-miterlimit: 10; transform-origin: 113.71px 292.81px;" id="ely3b2kxqi79" class="animable"></path><path d="M106.84,264.5s.49,1.48,1.27,4" style="fill: none; stroke: rgb(130, 130, 130); stroke-miterlimit: 10; transform-origin: 107.475px 266.5px;" id="elm434u51fw8g" class="animable"></path><path d="M118.34,289.5s3,15,3,27.5" style="fill: none; stroke: rgb(130, 130, 130); stroke-miterlimit: 10; transform-origin: 119.84px 303.25px;" id="eluo1djn48ys" class="animable"></path><path d="M93.84,157s-18.75,9.75-23,11-8.5,9-9.25,12.5S47.84,211,44.34,220.25,38.09,233.5,41.09,237s11.75,8,16.5,2.5S72.34,211,72.34,211l.25,20.25s11,4.5,31.25,4.75,40.25-5,40.25-5V204l15.5,23.75a11.43,11.43,0,0,0,13,1.75c7.5-3.75,7.25-8.5,3.75-16s-20-37-25-45.25-15.5-10.5-20-11.25-13.25-1.75-13.25-1.75Z" style="fill: rgb(255, 255, 255); transform-origin: 109.252px 198.662px;" id="el8ajsp3f3cny" class="animable"></path><path d="M74.11,184.18c1.23.8,2.27,1.56,3.27,2.3,4.1,3,7.34,5.4,17.67,5.4,12.33,0,33.83-4.49,46.68-8.65,3.3-1.06,6.14-2.08,8.65-3s4.68-1.66,6.63-2.25l-1.53-2.67c-1.86.58-3.87,1.3-6.11,2.1-2.49.89-5.31,1.9-8.56,2.95-12.64,4.09-33.72,8.5-45.76,8.5-9.35,0-12-1.92-15.89-4.82-1-.73-2.11-1.55-3.42-2.4-4.42-2.85-9.9-3.67-13.21-3.89a15.08,15.08,0,0,0-.94,2.73c0,.06,0,.15-.06.22C64.35,180.85,69.89,181.45,74.11,184.18Z" style="fill: rgb(19, 100, 139); transform-origin: 109.27px 183.595px;" id="el24otopx479s" class="animable"></path><path d="M75.41,175.46c4,3.65,5.52,5.16,5.54,5.17l.41.41.59,0c.06,0,1.51.06,4,.06,8.35,0,28.29-.64,46.07-6.09,7.89-2.42,14.65-4.08,20.26-5.23-.35-.57-.66-1.1-.94-1.56s-.5-.77-.77-1.14c-5.48,1.15-12,2.77-19.43,5.06-20.74,6.36-44.54,6-48.5,5.92-.7-.68-2.29-2.2-5.21-4.85-2.25-2-6.05-3.07-9.33-3.59a17.38,17.38,0,0,0-2.45,2.7C69,172.71,73.35,173.59,75.41,175.46Z" style="fill: rgb(19, 100, 139); transform-origin: 108.965px 174.09px;" id="elhu10buoxrrt" class="animable"></path><path d="M133.91,157.5c-1-.22-1.85-.38-2.57-.5-.88-.15-1.93-.3-3.05-.46a74.45,74.45,0,0,1-39.56,3.08l-4.12,2.08A71.58,71.58,0,0,0,103,164,76.29,76.29,0,0,0,133.91,157.5Z" style="fill: rgb(19, 100, 139); transform-origin: 109.26px 160.271px;" id="elqr67gijicpc" class="animable"></path><path d="M59.52,218.83c-4.75-2.16-10.11-2-14.05-1.41-.44,1.06-.82,2-1.13,2.83l-.18.46c3.56-.73,9.31-1.34,14.12.85,3.42,1.56,5.86,2.72,7.54,3.54.44-.91.88-1.81,1.3-2.7C65.42,221.56,63,220.39,59.52,218.83Z" style="fill: rgb(19, 100, 139); transform-origin: 55.64px 221.069px;" id="ellw7175kyig" class="animable"></path><path d="M101.33,173.26a79.83,79.83,0,0,0,11.07-.78,102.45,102.45,0,0,0,33.07-10.29,25.34,25.34,0,0,0-3.13-1.81A101.36,101.36,0,0,1,112,169.51c-17.18,2.38-29.84-1.61-35.4-3.92-1.38.64-2.64,1.2-3.68,1.64C76,168.79,86.15,173.26,101.33,173.26Z" style="fill: rgb(19, 100, 139); transform-origin: 109.195px 166.82px;" id="elyp4s9ajlcsd" class="animable"></path><path d="M144.09,222.83c-4.23,1.09-13.25,3.25-26.19,5.58-15.07,2.71-38-2.12-45.39-3.86l0,3.1c6.43,1.5,21.33,4.58,34.85,4.58a62.52,62.52,0,0,0,11-.87c12.29-2.21,21.1-4.28,25.66-5.43Z" style="fill: rgb(19, 100, 139); transform-origin: 108.3px 227.531px;" id="elypoqdedbqq" class="animable"></path><path d="M63.14,203.31c9.18,4,17.37,8.12,17.45,8.16l.3.15h.33c.22,0,1.41,0,3.32,0,7.95,0,28.42-.51,43.76-5.32a148.43,148.43,0,0,0,19.33-7.83c7-3.28,12.29-5.72,17.74-5.61-.54-1-1.09-2-1.64-3-5.54.35-10.89,2.83-17.36,5.86a146,146,0,0,1-19,7.67C110,209,84.78,208.69,81.63,208.64c-1.57-.78-9-4.45-17.28-8.08A29,29,0,0,0,54.1,198c-.45,1-.9,2-1.35,3A25.23,25.23,0,0,1,63.14,203.31Z" style="fill: rgb(19, 100, 139); transform-origin: 109.06px 200.74px;" id="elon8h56gccri" class="animable"></path><path d="M62.82,213.39l6.27,2.51a1.84,1.84,0,0,0,.59,1c.6-1.31,1.12-2.48,1.54-3.42l-7.29-2.92c-4.24-1.69-10-2.35-14.35-2.59L48.26,211C52.52,211.13,58.6,211.7,62.82,213.39Z" style="fill: rgb(19, 100, 139); transform-origin: 59.74px 212.435px;" id="elplygmz73vle" class="animable"></path><path d="M72.38,214l.05,4.14c2.94.74,8.59,1.39,19.6,1.71q4.18.12,8.11.12c21.46,0,36.88-2.48,39.49-3.59a22.73,22.73,0,0,1,4.46-1.39v-4c-.45.48-.79.89-1,1.17a25.84,25.84,0,0,0-4.62,1.48c-2.41,1-20.93,4-46.32,3.23-11.62-.33-16.65-1.05-18.81-1.56l.93-.54Z" style="fill: rgb(19, 100, 139); transform-origin: 108.235px 215.48px;" id="elgegm6hqwch" class="animable"></path><path d="M174.91,210.6l-1.5-2.89a41,41,0,0,0-21.14,8.83L154,219.1A38.12,38.12,0,0,1,174.91,210.6Z" style="fill: rgb(19, 100, 139); transform-origin: 163.59px 213.405px;" id="ela39ybdbgzdu" class="animable"></path><path d="M170.15,201.61l-1.66-3c-9.49.14-17.2,5.58-21.65,9.64l1.68,2.58C152.8,206.83,160.7,201.12,170.15,201.61Z" style="fill: rgb(19, 100, 139); transform-origin: 158.495px 204.72px;" id="eldbruzgb3jn9" class="animable"></path><path d="M69,194.7c3.15,1.61,5.42,2.87,7.24,3.88,3.79,2.11,5.7,3.17,9.24,3.72a11.56,11.56,0,0,0,1.51.08c8.32,0,38.55-4.53,49-9.92a100.28,100.28,0,0,1,24.13-9l-1.54-2.73a104.17,104.17,0,0,0-24,9c-10.53,5.45-43.92,10.27-48.66,9.54-3-.46-4.53-1.31-8.23-3.37-1.84-1-4.13-2.3-7.34-3.94a30.3,30.3,0,0,0-12-3.51l-1.32,3A26.07,26.07,0,0,1,69,194.7Z" style="fill: rgb(19, 100, 139); transform-origin: 108.575px 191.555px;" id="elgiw79bllohr" class="animable"></path><g id="elzp1x5zydcno"><g style="opacity: 0.4; transform-origin: 109.535px 194.386px;" class="animable"><path d="M74.11,184.18c1.23.8,2.27,1.56,3.27,2.3,4.1,3,7.34,5.4,17.67,5.4,12.33,0,33.83-4.49,46.68-8.65,3.3-1.06,6.14-2.08,8.65-3s4.68-1.66,6.63-2.25l-1.53-2.67c-1.86.58-3.87,1.3-6.11,2.1-2.49.89-5.31,1.9-8.56,2.95-12.64,4.09-33.72,8.5-45.76,8.5-9.35,0-12-1.92-15.89-4.82-1-.73-2.11-1.55-3.42-2.4-4.42-2.85-9.9-3.67-13.21-3.89a15.08,15.08,0,0,0-.94,2.73c0,.06,0,.15-.06.22C64.35,180.85,69.89,181.45,74.11,184.18Z" style="fill: rgb(255, 255, 255); transform-origin: 109.27px 183.595px;" id="elw9pdkyqwg2l" class="animable"></path><path d="M75.41,175.46c4,3.65,5.52,5.16,5.54,5.17l.41.41.59,0c.06,0,1.51.06,4,.06,8.35,0,28.29-.64,46.07-6.09,7.89-2.42,14.65-4.08,20.26-5.23-.35-.57-.66-1.1-.94-1.56s-.5-.77-.77-1.14c-5.48,1.15-12,2.77-19.43,5.06-20.74,6.36-44.54,6-48.5,5.92-.7-.68-2.29-2.2-5.21-4.85-2.25-2-6.05-3.07-9.33-3.59a17.38,17.38,0,0,0-2.45,2.7C69,172.71,73.35,173.59,75.41,175.46Z" style="fill: rgb(255, 255, 255); transform-origin: 108.965px 174.09px;" id="elr0ay0hoio9" class="animable"></path><path d="M133.91,157.5c-1-.22-1.85-.38-2.57-.5-.88-.15-1.93-.3-3.05-.46a74.45,74.45,0,0,1-39.56,3.08l-4.12,2.08A71.58,71.58,0,0,0,103,164,76.29,76.29,0,0,0,133.91,157.5Z" style="fill: rgb(255, 255, 255); transform-origin: 109.26px 160.271px;" id="elqzbw540tttb" class="animable"></path><path d="M59.52,218.83c-4.75-2.16-10.11-2-14.05-1.41-.44,1.06-.82,2-1.13,2.83l-.18.46c3.56-.73,9.31-1.34,14.12.85,3.42,1.56,5.86,2.72,7.54,3.54.44-.91.88-1.81,1.3-2.7C65.42,221.56,63,220.39,59.52,218.83Z" style="fill: rgb(255, 255, 255); transform-origin: 55.64px 221.069px;" id="elqbjsewsqh8s" class="animable"></path><path d="M101.33,173.26a79.83,79.83,0,0,0,11.07-.78,102.45,102.45,0,0,0,33.07-10.29,25.34,25.34,0,0,0-3.13-1.81A101.36,101.36,0,0,1,112,169.51c-17.18,2.38-29.84-1.61-35.4-3.92-1.38.64-2.64,1.2-3.68,1.64C76,168.79,86.15,173.26,101.33,173.26Z" style="fill: rgb(255, 255, 255); transform-origin: 109.195px 166.82px;" id="elxza43gm6u6m" class="animable"></path><path d="M144.09,222.83c-4.23,1.09-13.25,3.25-26.19,5.58-15.07,2.71-38-2.12-45.39-3.86l0,3.1c6.43,1.5,21.33,4.58,34.85,4.58a62.52,62.52,0,0,0,11-.87c12.29-2.21,21.1-4.28,25.66-5.43Z" style="fill: rgb(255, 255, 255); transform-origin: 108.3px 227.531px;" id="elo6qby5x8poj" class="animable"></path><path d="M63.14,203.31c9.18,4,17.37,8.12,17.45,8.16l.3.15h.33c.22,0,1.41,0,3.32,0,7.95,0,28.42-.51,43.76-5.32a148.43,148.43,0,0,0,19.33-7.83c7-3.28,12.29-5.72,17.74-5.61-.54-1-1.09-2-1.64-3-5.54.35-10.89,2.83-17.36,5.86a146,146,0,0,1-19,7.67C110,209,84.78,208.69,81.63,208.64c-1.57-.78-9-4.45-17.28-8.08A29,29,0,0,0,54.1,198c-.45,1-.9,2-1.35,3A25.23,25.23,0,0,1,63.14,203.31Z" style="fill: rgb(255, 255, 255); transform-origin: 109.06px 200.74px;" id="elbqrzzs7jep" class="animable"></path><path d="M62.82,213.39l6.27,2.51a1.84,1.84,0,0,0,.59,1c.6-1.31,1.12-2.48,1.54-3.42l-7.29-2.92c-4.24-1.69-10-2.35-14.35-2.59L48.26,211C52.52,211.13,58.6,211.7,62.82,213.39Z" style="fill: rgb(255, 255, 255); transform-origin: 59.74px 212.435px;" id="elcioj3ljx9dt" class="animable"></path><path d="M72.38,214l.05,4.14c2.94.74,8.59,1.39,19.6,1.71q4.18.12,8.11.12c21.46,0,36.88-2.48,39.49-3.59a22.73,22.73,0,0,1,4.46-1.39v-4c-.45.48-.79.89-1,1.17a25.84,25.84,0,0,0-4.62,1.48c-2.41,1-20.93,4-46.32,3.23-11.62-.33-16.65-1.05-18.81-1.56l.93-.54Z" style="fill: rgb(255, 255, 255); transform-origin: 108.235px 215.48px;" id="elbh6ftr3sl3c" class="animable"></path><path d="M174.91,210.6l-1.5-2.89a41,41,0,0,0-21.14,8.83L154,219.1A38.12,38.12,0,0,1,174.91,210.6Z" style="fill: rgb(255, 255, 255); transform-origin: 163.59px 213.405px;" id="el44qlfkymm4w" class="animable"></path><path d="M170.15,201.61l-1.66-3c-9.49.14-17.2,5.58-21.65,9.64l1.68,2.58C152.8,206.83,160.7,201.12,170.15,201.61Z" style="fill: rgb(255, 255, 255); transform-origin: 158.495px 204.72px;" id="elpz3tgmoczs8" class="animable"></path><path d="M69,194.7c3.15,1.61,5.42,2.87,7.24,3.88,3.79,2.11,5.7,3.17,9.24,3.72a11.56,11.56,0,0,0,1.51.08c8.32,0,38.55-4.53,49-9.92a100.28,100.28,0,0,1,24.13-9l-1.54-2.73a104.17,104.17,0,0,0-24,9c-10.53,5.45-43.92,10.27-48.66,9.54-3-.46-4.53-1.31-8.23-3.37-1.84-1-4.13-2.3-7.34-3.94a30.3,30.3,0,0,0-12-3.51l-1.32,3A26.07,26.07,0,0,1,69,194.7Z" style="fill: rgb(255, 255, 255); transform-origin: 108.575px 191.555px;" id="el4vx8ggvjeed" class="animable"></path></g></g><path d="M93.84,157s-18.75,9.75-23,11-8.5,9-9.25,12.5S47.84,211,44.34,220.25,38.09,233.5,41.09,237s11.75,8,16.5,2.5S72.34,211,72.34,211l.25,20.25s11,4.5,31.25,4.75,40.25-5,40.25-5V204l15.5,23.75a11.43,11.43,0,0,0,13,1.75c7.5-3.75,7.25-8.5,3.75-16s-20-37-25-45.25-15.5-10.5-20-11.25-13.25-1.75-13.25-1.75Z" style="fill: none; stroke: rgb(38, 50, 56); stroke-miterlimit: 10; transform-origin: 109.252px 198.662px;" id="el9hb3vbj2cx" class="animable"></path><path d="M103.84,161.25a93.13,93.13,0,0,0,25,19.25c14.75,7.5,31.25,8,44.25,1s19.75-9.25,19.75-9.25l-5.5-14a69.77,69.77,0,0,1-25.5,10.25c-15.5,3-31,.75-36.5-2.5s-11-6.25-11-6.25Z" style="fill: rgb(19, 100, 139); stroke: rgb(38, 50, 56); stroke-miterlimit: 10; transform-origin: 148.34px 172.351px;" id="eld8c54iou1zm" class="animable"></path><path d="M107.34,159c1,.5,21,13.75,36,13.5s21-7,34-15.75a75.61,75.61,0,0,1,27-11L202.84,132s-20.5-1.75-36,7.5-26.75,19-33.5,20a20.72,20.72,0,0,1-12.5-2.5Z" style="fill: rgb(19, 100, 139); stroke: rgb(38, 50, 56); stroke-miterlimit: 10; transform-origin: 155.84px 152.186px;" id="el0c4hjp840zet" class="animable"></path><path d="M107.52,165h8.74s5.43-3.07,6.61-3.78,2.84-1.66,2.84-1.66l.88-2.1s-11.28,3.29-15.06,3.29a20.55,20.55,0,0,0-6.38.94Z" style="fill: rgb(38, 50, 56); stroke: rgb(38, 50, 56); stroke-miterlimit: 10; transform-origin: 115.87px 161.23px;" id="el7658832qh5g" class="animable"></path><path d="M143.09,125.83c-1.5-2.25,2.5-4.5,2-9.25s-7-5-7.5-8.75-1-13-6.75-21c-10.26-14.28-34.15-14.4-44.5,0-5.75,8-6.25,17.25-6.75,21s-7,4-7.5,8.75,3.5,7,2,9.25-8,5.5-8,11a17.86,17.86,0,0,0,2,8.75h81a17.86,17.86,0,0,0,2-8.75C151.09,131.33,144.59,128.08,143.09,125.83Z" style="fill: rgb(38, 50, 56); stroke: rgb(38, 50, 56); stroke-miterlimit: 10; transform-origin: 108.59px 110.827px;" id="el6b5d93418zd" class="animable"></path><path d="M89.59,121.58s-4.5-6-5.5.25,6.75,8.75,6.75,8.75Z" style="fill: rgb(255, 255, 255); stroke: rgb(38, 50, 56); stroke-miterlimit: 10; transform-origin: 87.4205px 124.783px;" id="elbrcg2s2nbcg" class="animable"></path><path d="M127.5,121.58s4.5-6,5.5.25-6.75,8.75-6.75,8.75Z" style="fill: rgb(255, 255, 255); stroke: rgb(38, 50, 56); stroke-miterlimit: 10; transform-origin: 129.67px 124.783px;" id="elqviplndza38" class="animable"></path><polygon points="94.34 132.25 97.84 149.75 120.34 149.75 124.09 133.75 94.34 132.25" style="fill: rgb(255, 255, 255); stroke: rgb(38, 50, 56); stroke-miterlimit: 10; transform-origin: 109.215px 141px;" id="el3zyzu3wdkyi" class="animable"></polygon><path d="M100.59,145s-6-1.25-6.5.25-1.5,14.25-.25,15.25,7.5,2.75,15.75,2.25,17.25-2.25,17-5.25-1.5-9.5-1.5-11.5S100.59,145,100.59,145Z" style="fill: rgb(19, 100, 139); stroke: rgb(38, 50, 56); stroke-miterlimit: 10; transform-origin: 109.916px 153.675px;" id="eljkw3e3ahi5" class="animable"></path><path d="M100.59,145a28.26,28.26,0,0,0-2.9-.42c4.3,4.58,9.91,7.67,14.9,6.7,3.23-.62,6.24-3.07,8.71-6.28C114.42,144.44,100.59,145,100.59,145Z" style="fill: rgb(38, 50, 56); stroke: rgb(38, 50, 56); stroke-miterlimit: 10; transform-origin: 109.495px 148.019px;" id="elm1bk11uamrp" class="animable"></path><path d="M124.34,106.58a5.9,5.9,0,0,1-3.25-5.75,4.28,4.28,0,0,1-2.5,1.25c-2,.5-4.5-.5-6.75-.5s-3.5,3.5-4.75,7.75-9.25,1.25-13.75,1.5a6.12,6.12,0,0,0-5.07,3.4c.74,6.67,2,14.84,3.82,19.35,3.5,8.5,12.75,16.75,20.5,15.25s14.25-13.5,15-21.25c.36-3.69.71-8.39,1-13.12C128.08,112,126.92,108,124.34,106.58Z" style="fill: rgb(255, 255, 255); stroke: rgb(38, 50, 56); stroke-miterlimit: 10; transform-origin: 108.43px 124.919px;" id="elv7qurpbr48j" class="animable"></path><ellipse cx="103.09" cy="123.08" rx="1.5" ry="3" style="fill: rgb(38, 50, 56); transform-origin: 103.09px 123.08px;" id="el1b94j0exu7u" class="animable"></ellipse><ellipse cx="115.09" cy="123.08" rx="1.5" ry="3" style="fill: rgb(38, 50, 56); transform-origin: 115.09px 123.08px;" id="elkz98mq5bqt" class="animable"></ellipse><path d="M105.84,133.33s2,3.25,4.75,2.5a6.87,6.87,0,0,0,4-3.5" style="fill: none; stroke: rgb(38, 50, 56); stroke-miterlimit: 10; transform-origin: 110.215px 134.136px;" id="el709n2z708ve" class="animable"></path><path d="M97.38,117.28a6.23,6.23,0,0,1,8.23-2.47" style="fill: none; stroke: rgb(38, 50, 56); stroke-miterlimit: 10; transform-origin: 101.495px 115.708px;" id="elggcw8b6d45j" class="animable"></path><path d="M113.09,113.83s5.25-1.25,7.5,3.75" style="fill: none; stroke: rgb(38, 50, 56); stroke-miterlimit: 10; transform-origin: 116.84px 115.636px;" id="elith2fmd79x" class="animable"></path><path d="M106.09,139.08s3.25,3,8,0" style="fill: none; stroke: rgb(38, 50, 56); stroke-miterlimit: 10; transform-origin: 110.09px 139.747px;" id="elafx2u4s25jq" class="animable"></path><path d="M126.51,213.19l-11.22,1a2.5,2.5,0,0,1-2.7-2.27l-2.85-28.74a2.49,2.49,0,0,1,2.26-2.7l11.22-1a2.49,2.49,0,0,1,2.7,2.26l2.86,28.74A2.5,2.5,0,0,1,126.51,213.19Z" style="fill: rgb(38, 50, 56); stroke: rgb(38, 50, 56); stroke-miterlimit: 10; transform-origin: 119.26px 196.835px;" id="el0xemzl2eq40k" class="animable"></path><path d="M169,213.89s-25.91-2.13-29.26-4.15-7.61-5.37-9.72-10.3-5.94-4.23-10-4.3-9.93,2-9,3.3,4,.07,6.76,0,6.23.5,7.15,1.57a21.73,21.73,0,0,1,1.59,2.13s-7,0-10.41,1.69-5.32,3.84-5.48,5.83,2.28-.16,3.61-1.06a19.41,19.41,0,0,1,5.27-2.22,10.41,10.41,0,0,1,3.4-.11l2.49.55a42.86,42.86,0,0,1-5.87,1.29c-4.07.68-9.47,5.52-8.53,6.35s5.75-2.22,7.62-2.78a22,22,0,0,1,4.2-.8,16.45,16.45,0,0,1,2.76,0s-6.27,3.26-8.66,4.83-.42,2.22,2.17,1.17,7.21-2.44,7.21-2.44a17.17,17.17,0,0,0,5.87,2,42.22,42.22,0,0,0,4.75.13s16.43,7.9,23.84,12.5,14,3.86,17.13-.91,2.28-9.85-.78-12.35S169,213.89,169,213.89Z" style="fill: rgb(255, 255, 255); stroke: rgb(38, 50, 56); stroke-miterlimit: 10; transform-origin: 145.242px 213.647px;" id="elboq70il9u6" class="animable"></path><path d="M77.71,232l-13.83-.3S49.15,258.79,47.05,265.1,54,277.42,57.87,278.33s15,.9,17.13-2.41,5.71-32.77,6-38.48S77.71,232,77.71,232Z" style="fill: rgb(115, 115, 115); stroke: rgb(38, 50, 56); stroke-miterlimit: 10; transform-origin: 63.8774px 255.273px;" id="elwd87l56aafg" class="animable"></path><path d="M77.71,232l-5.38-.12c-2,5.24-15.23,39.85-13.23,45.29a9,9,0,0,0,.71,1.43c4.81.54,13.37.15,15.19-2.71,2.11-3.31,5.71-32.77,6-38.48S77.71,232,77.71,232Z" style="fill: rgb(69, 69, 69); stroke: rgb(38, 50, 56); stroke-miterlimit: 10; transform-origin: 69.9558px 255.343px;" id="el0ipsatppdpm" class="animable"></path><path d="M74.4,166.5s4.21,21.34,5.11,31.86-4.81,42.69-6,46.3.6,7.51,2.1,7.51,3.61-3,4.21-7.51S84,211,84,203.47s-5.11-39.07-5.11-39.07Z" style="fill: rgb(115, 115, 115); stroke: rgb(38, 50, 56); stroke-miterlimit: 10; transform-origin: 78.561px 208.285px;" id="el2cnxqy8ecjd" class="animable"></path><path d="M76.63,222.09a37.75,37.75,0,0,0-5.82,6.21c-2.72,3.69-14.75,19.41-19.22,20.38s-13.59-1.55-14.75-6.6,0-10.48,7.18-13.59,21.74-9.12,21.74-9.12,8.35-9.12,9.13-10.29,3.3-5,4.07-5.63,8.74-2.71,10.1-1.94A4.21,4.21,0,0,1,91,205.2c-.19,1-1.36,1.55-1.36,2.72s1.17,8.93-.19,10.48S76.63,222.09,76.63,222.09Z" style="fill: rgb(255, 255, 255); stroke: rgb(38, 50, 56); stroke-miterlimit: 10; transform-origin: 63.7264px 225.113px;" id="eloctbm2tlr8" class="animable"></path></g><defs>     <filter id="active" height="200%">         <feMorphology in="SourceAlpha" result="DILATED" operator="dilate" radius="2"></feMorphology>                <feFlood flood-color="#32DFEC" flood-opacity="1" result="PINK"></feFlood>        <feComposite in="PINK" in2="DILATED" operator="in" result="OUTLINE"></feComposite>        <feMerge>            <feMergeNode in="OUTLINE"></feMergeNode>            <feMergeNode in="SourceGraphic"></feMergeNode>        </feMerge>    </filter>    <filter id="hover" height="200%">        <feMorphology in="SourceAlpha" result="DILATED" operator="dilate" radius="2"></feMorphology>                <feFlood flood-color="#ff0000" flood-opacity="0.5" result="PINK"></feFlood>        <feComposite in="PINK" in2="DILATED" operator="in" result="OUTLINE"></feComposite>        <feMerge>            <feMergeNode in="OUTLINE"></feMergeNode>            <feMergeNode in="SourceGraphic"></feMergeNode>        </feMerge>            <feColorMatrix type="matrix" values="0   0   0   0   0                0   1   0   0   0                0   0   0   0   0                0   0   0   1   0 "></feColorMatrix>    </filter></defs></svg>